<?xml version="1.0" encoding="utf-8"?>
<!-- Generator: Adobe Illustrator 16.0.0, SVG Export Plug-In . SVG Version: 6.00 Build 0)  -->
<!DOCTYPE svg PUBLIC "-//W3C//DTD SVG 1.1//EN" "http://www.w3.org/Graphics/SVG/1.1/DTD/svg11.dtd">
<svg version="1.1" id="Layer_1" xmlns="http://www.w3.org/2000/svg" xmlns:xlink="http://www.w3.org/1999/xlink" x="0px" y="0px"
	 width="222px" height="103px" viewBox="0 0 222 103" enable-background="new 0 0 222 103" xml:space="preserve">
<radialGradient id="SVGID_1_" cx="-68" cy="256.5" r="86.5253" gradientTransform="matrix(1 0 0 -1 179 308)" gradientUnits="userSpaceOnUse">
	<stop  offset="0" style="stop-color:#1F6E85"/>
	<stop  offset="1" style="stop-color:#003B51"/>
</radialGradient>
<path fill="url(#SVGID_1_)" d="M10.885,103h200.228c5.99,0,10.887-4.905,10.887-10.887v-8.947V19.833v-8.947
	C222,4.903,217.104,0,211.113,0H10.885C4.898,0,0,4.948,0,10.886v8.947v63.333v8.947C0,98.05,4.898,103,10.885,103"/>
<path fill="#FFFFFF" d="M144.799,80.916h-0.607l0.504-4.087h0.607L144.799,80.916z M142.852,79.599l-0.105,0.008
	c-0.443,0.043-0.727,0.178-0.844,0.401c-0.035,0.063-0.055,0.126-0.063,0.198c-0.008,0.062-0.008,0.119,0.008,0.179
	c0.031,0.174,0.131,0.26,0.297,0.253c0.125,0,0.248-0.055,0.359-0.155c0.154-0.132,0.256-0.32,0.295-0.565l0.031-0.212
	L142.852,79.599z M142.689,80.599c-0.094,0.107-0.219,0.2-0.385,0.276c-0.146,0.072-0.291,0.105-0.439,0.104
	c-0.211,0-0.381-0.063-0.506-0.195c-0.137-0.133-0.191-0.305-0.166-0.51c0.053-0.479,0.42-0.768,1.1-0.873
	c0.152-0.027,0.309-0.043,0.479-0.055l0.111-0.008l0.02-0.139l0.021-0.166l0.021-0.205c0.025-0.354-0.086-0.536-0.342-0.543
	c-0.248,0-0.406,0.159-0.479,0.475l-0.027,0.13h-0.645c0.012-0.066,0.021-0.119,0.031-0.152c0.096-0.374,0.359-0.596,0.789-0.672
	c0.127-0.023,0.252-0.036,0.385-0.036c0.141,0,0.271,0.02,0.396,0.05c0.371,0.089,0.537,0.344,0.496,0.77
	c-0.008,0.067-0.014,0.146-0.025,0.247l-0.225,1.819h-0.609l0.047-0.377L142.689,80.599z M137.58,78.662
	c0.055-0.086,0.113-0.169,0.172-0.241c0.213-0.265,0.469-0.391,0.76-0.391s0.484,0.126,0.578,0.377
	c0.023,0.066,0.039,0.139,0.047,0.205c0,0.021,0,0.053-0.004,0.093l0.045-0.072c0.039-0.068,0.086-0.137,0.139-0.197
	c0.064-0.086,0.139-0.158,0.209-0.221c0.076-0.059,0.154-0.102,0.248-0.135c0.092-0.03,0.186-0.05,0.283-0.05
	c0.217,0.007,0.379,0.079,0.482,0.215c0.105,0.136,0.152,0.313,0.141,0.526c-0.004,0.046-0.016,0.125-0.027,0.229l-0.23,1.916
	h-0.607l0.219-1.813c0.006-0.023,0.006-0.073,0.014-0.142c0.018-0.311-0.078-0.47-0.279-0.477c-0.256,0-0.461,0.205-0.613,0.611
	c-0.025,0.065-0.045,0.134-0.059,0.194l-0.033,0.16l-0.027,0.139c-0.01,0.051-0.016,0.102-0.02,0.152l-0.146,1.171h-0.607
	l0.217-1.757l0.016-0.144c0.043-0.353-0.047-0.525-0.277-0.529c-0.27,0.007-0.477,0.205-0.629,0.601
	c-0.021,0.063-0.047,0.125-0.061,0.197l-0.035,0.147l-0.031,0.151c-0.016,0.074-0.023,0.13-0.023,0.167l-0.146,1.164h-0.607
	l0.348-2.82h0.572l-0.08,0.67L137.58,78.662z M135.563,77.421l0.072-0.589h0.643l-0.072,0.589H135.563z M135.762,80.916h-0.609
	l0.344-2.819h0.609L135.762,80.916z M132.83,78.715c0.297-0.452,0.635-0.682,1.014-0.685c0.219,0.003,0.383,0.063,0.494,0.198
	c0.113,0.126,0.166,0.298,0.148,0.517c-0.002,0.046-0.01,0.125-0.029,0.244l-0.23,1.927h-0.611l0.215-1.737l0.02-0.147
	c0.01-0.072,0.01-0.146,0.01-0.219c0-0.211-0.1-0.317-0.291-0.324c-0.172,0-0.334,0.093-0.496,0.265
	c-0.133,0.142-0.23,0.307-0.293,0.498c-0.016,0.053-0.031,0.105-0.043,0.168l-0.029,0.152l-0.023,0.143l-0.146,1.204h-0.611
	l0.348-2.818h0.58l-0.094,0.747L132.83,78.715z M130.428,79.282L130.428,79.282l-0.324-1.861l-0.799,1.861H130.428z M129.117,79.695
	l-0.533,1.221h-0.57l1.869-4.087h0.672l0.859,4.087h-0.676l-0.238-1.221H129.117z M124.451,78.715
	c0.299-0.452,0.635-0.682,1.014-0.685c0.219,0.003,0.385,0.063,0.496,0.198c0.111,0.126,0.162,0.298,0.148,0.517
	c-0.004,0.046-0.014,0.125-0.029,0.244l-0.234,1.927h-0.607l0.215-1.737l0.018-0.147c0.008-0.072,0.01-0.146,0.01-0.219
	c0-0.211-0.098-0.317-0.291-0.324c-0.168,0-0.338,0.093-0.496,0.265c-0.133,0.142-0.229,0.307-0.291,0.498
	c-0.016,0.053-0.033,0.105-0.047,0.168l-0.025,0.152l-0.025,0.143l-0.146,1.204h-0.611l0.35-2.818h0.576l-0.092,0.747
	L124.451,78.715z M122.229,77.609h-0.441l0.365-0.902h0.631L122.229,77.609z M122.367,79.579c0.039-0.305,0.047-0.563,0.029-0.773
	c-0.01-0.094-0.033-0.184-0.076-0.271c-0.072-0.162-0.205-0.245-0.402-0.245c-0.391,0.007-0.637,0.384-0.73,1.141
	c-0.023,0.186-0.037,0.345-0.039,0.477c-0.008,0.116-0.004,0.229,0.01,0.331c0.033,0.324,0.191,0.49,0.467,0.49
	C122.023,80.728,122.273,80.347,122.367,79.579z M123.016,79.532c-0.047,0.388-0.156,0.702-0.328,0.954
	c-0.086,0.126-0.195,0.229-0.32,0.304c-0.209,0.126-0.463,0.188-0.764,0.189c-0.832,0.01-1.189-0.48-1.07-1.475
	c0.08-0.643,0.291-1.064,0.637-1.276c0.129-0.076,0.27-0.135,0.42-0.162c0.109-0.023,0.23-0.036,0.355-0.036
	C122.771,78.037,123.129,78.536,123.016,79.532z M119.463,77.421l0.072-0.589h0.643l-0.076,0.589H119.463z M119.656,80.916h-0.611
	l0.354-2.819h0.605L119.656,80.916z M118.078,79.015l0.008-0.071c0.051-0.438-0.053-0.655-0.311-0.655
	c-0.188,0-0.346,0.112-0.471,0.338c-0.086,0.151-0.141,0.337-0.166,0.568c-0.045,0.389-0.016,0.703,0.1,0.947
	c0.158,0.338,0.4,0.503,0.734,0.496c0.139,0,0.275-0.021,0.418-0.063l0.098-0.029l-0.031,0.287l-0.133,0.05
	c-0.203,0.066-0.418,0.102-0.643,0.099c-0.281-0.004-0.492-0.043-0.641-0.113c-0.348-0.162-0.545-0.486-0.586-0.976
	c-0.016-0.152-0.012-0.313,0.012-0.487c0.051-0.367,0.148-0.658,0.313-0.87c0.174-0.245,0.406-0.4,0.684-0.463
	c0.117-0.027,0.238-0.04,0.365-0.04c0.105,0,0.205,0.013,0.297,0.026c0.102,0.017,0.188,0.046,0.27,0.089
	c0.248,0.13,0.359,0.381,0.342,0.736c0,0.033-0.008,0.073-0.014,0.134L118.078,79.015L118.078,79.015z M115.381,77.421l0.072-0.589
	h0.645l-0.076,0.589H115.381z M115.578,80.916h-0.607l0.348-2.819h0.611L115.578,80.916z M113.691,78.811
	c0.277-0.464,0.578-0.727,0.91-0.78c0.021,0,0.064-0.007,0.123-0.01l-0.08,0.632h-0.094c-0.486-0.007-0.787,0.244-0.895,0.759
	l-0.037,0.201l-0.156,1.304h-0.609l0.346-2.82h0.578L113.691,78.811z M111.688,79.64l-0.027,0.211l-0.021,0.166l-0.014,0.11
	c-0.01,0.101-0.014,0.184-0.01,0.245c0.004,0.172,0.148,0.258,0.432,0.266c0.07,0,0.131-0.005,0.182-0.015l0.076-0.013l-0.049,0.344
	l-0.117,0.01c-0.115,0.012-0.227,0.019-0.334,0.016c-0.604,0.003-0.871-0.238-0.806-0.724l0.033-0.265l0.217-1.589h-0.479
	l0.038-0.311h0.486l0.095-0.659l0.655-0.364l-0.141,1.023h0.773l-0.043,0.311h-0.773L111.688,79.64z M109.371,80.234
	c-0.035,0.063-0.062,0.107-0.081,0.136c-0.201,0.328-0.437,0.526-0.708,0.586c-0.071,0.019-0.147,0.026-0.228,0.023
	c-0.356,0.003-0.572-0.149-0.654-0.453c-0.023-0.087-0.038-0.173-0.036-0.259c0-0.079,0.007-0.174,0.02-0.277l0.024-0.238
	l0.204-1.655h0.609l-0.188,1.521c-0.017,0.11-0.024,0.193-0.026,0.246c-0.037,0.443,0.069,0.668,0.328,0.662
	c0.191,0,0.363-0.102,0.52-0.299c0.104-0.134,0.186-0.324,0.243-0.563l0.04-0.229l0.025-0.184l0.142-1.159h0.61l-0.349,2.82h-0.579
	L109.371,80.234z M106.601,76.829h0.539l-0.503,4.087h-0.705l-1.252-3.278l-0.404,3.278h-0.539l0.501-4.087h0.707l1.251,3.293
	L106.601,76.829z"/>
<path fill="#FFFFFF" d="M166.936,66.119c-0.08,0.542-0.139,1.138-0.166,1.783c-0.045,0.513-0.039,0.989,0.008,1.419
	c0.053,0.434,0.164,0.834,0.35,1.189c0.338,0.803,0.939,1.187,1.809,1.158c1.867,0.007,3.068-1.787,3.621-5.38
	c0.096-0.646,0.164-1.228,0.199-1.74c0.211-2.635-0.5-3.966-2.135-3.993c-1.203,0.027-2.131,0.798-2.779,2.311
	c-0.221,0.486-0.395,0.963-0.52,1.439C167.15,64.897,167.021,65.503,166.936,66.119 M174.703,52.962h2.994l-3.049,20.079h-2.951
	l0.34-2.254l-0.4,0.513c-1.133,1.367-2.496,2.057-4.084,2.057c-3.209,0.028-4.459-2.434-3.758-7.375
	c0.592-3.847,2.162-6.144,4.711-6.88c0.51-0.148,1.049-0.229,1.615-0.229c1.5-0.02,2.555,0.589,3.16,1.827l0.188,0.396
	L174.703,52.962z M159.154,63.035c0.025-0.169,0.039-0.298,0.045-0.384c0.014-0.228,0.008-0.471-0.02-0.727
	c-0.125-1.168-0.787-1.771-1.979-1.798c-0.719,0-1.355,0.259-1.926,0.775c-0.57,0.521-0.928,1.095-1.082,1.731l-0.09,0.397h5.051
	V63.035z M153.777,65.093c-0.076,0.619-0.08,1.231-0.008,1.842c0.305,3.13,1.719,4.703,4.246,4.736
	c0.668,0.007,1.383-0.097,2.123-0.313l0.691-0.215l-0.217,1.41c-0.41,0.162-0.727,0.275-0.932,0.328
	c-0.764,0.248-1.576,0.396-2.453,0.443l-0.855,0.029c-1.715,0.011-3.078-0.396-4.084-1.214c-1.092-0.889-1.707-2.117-1.846-3.715
	c-0.1-0.907-0.066-1.879,0.1-2.902c0.078-0.583,0.205-1.146,0.369-1.701c0.232-0.824,0.605-1.603,1.102-2.322
	c0.865-1.298,2.047-2.103,3.531-2.417c0.648-0.129,1.324-0.201,2.047-0.212c1.656-0.02,2.893,0.417,3.697,1.313
	c0.813,0.895,1.105,2.165,0.883,3.81l-0.08,0.557h-8.246L153.777,65.093z M145.869,63.035c0.023-0.169,0.037-0.298,0.043-0.384
	c0.016-0.228,0.006-0.471-0.018-0.727c-0.129-1.168-0.789-1.771-1.98-1.798c-0.715,0-1.355,0.259-1.926,0.775
	c-0.566,0.521-0.928,1.095-1.082,1.731l-0.09,0.397h5.053V63.035z M140.492,65.093c-0.08,0.619-0.082,1.231-0.01,1.842
	c0.309,3.13,1.717,4.703,4.244,4.736c0.672,0.007,1.385-0.097,2.129-0.313l0.689-0.215l-0.215,1.41
	c-0.414,0.162-0.73,0.275-0.938,0.328c-0.762,0.248-1.574,0.396-2.447,0.443l-0.861,0.029c-1.713,0.011-3.076-0.396-4.08-1.214
	c-1.094-0.889-1.709-2.117-1.85-3.715c-0.098-0.907-0.064-1.879,0.1-2.902c0.08-0.583,0.205-1.146,0.371-1.701
	c0.234-0.824,0.604-1.603,1.1-2.322c0.871-1.298,2.053-2.103,3.533-2.417c0.648-0.129,1.326-0.201,2.047-0.212
	c1.658-0.02,2.891,0.417,3.697,1.313c0.813,0.895,1.104,2.165,0.889,3.81l-0.086,0.557h-8.246L140.492,65.093z M131.016,73.041
	h-2.99l1.873-12.343h-2.369l0.23-1.516h2.367l0.102-0.655l0.125-0.758c0.064-0.44,0.141-0.791,0.205-1.058
	c0.08-0.322,0.199-0.675,0.379-1.059c0.131-0.32,0.301-0.608,0.498-0.867c1.004-1.396,2.648-2.084,4.951-2.055
	c0.715,0.01,1.512,0.083,2.393,0.229l0.443,0.083l-0.256,1.687l-0.414-0.099c-0.396-0.089-0.797-0.146-1.197-0.185l-0.715-0.03
	c-1.674-0.02-2.707,0.711-3.084,2.197c-0.094,0.291-0.158,0.595-0.195,0.896l-0.121,0.916l-0.119,0.757h3.813l-0.23,1.516h-3.807
	L131.016,73.041z M122.793,66.463c0.236-1.48,0.322-2.746,0.268-3.799c-0.029-0.45-0.135-0.894-0.33-1.323
	c-0.336-0.809-0.98-1.212-1.939-1.212c-1.938,0.026-3.191,1.896-3.766,5.605c-0.135,0.894-0.223,1.672-0.262,2.323
	c-0.059,0.582-0.055,1.125,0.004,1.628c0.123,1.605,0.855,2.411,2.221,2.411C120.961,72.117,122.229,70.234,122.793,66.463z
	 M125.994,66.248c-0.289,1.896-0.867,3.45-1.74,4.683c-0.441,0.63-0.984,1.117-1.621,1.481c-1.047,0.622-2.307,0.933-3.785,0.942
	c-4.072,0.05-5.758-2.362-5.051-7.235c0.49-3.157,1.6-5.249,3.322-6.281c0.641-0.378,1.33-0.646,2.074-0.794
	c0.547-0.113,1.123-0.173,1.744-0.173C125.006,58.892,126.688,61.354,125.994,66.248z M108.692,62.711
	c1.426-2.298,2.949-3.569,4.578-3.84c0.125-0.02,0.328-0.039,0.605-0.06l-0.473,3.113l-0.453-0.017
	c-2.402-0.026-3.907,1.214-4.517,3.729l-0.195,0.995l-0.973,6.406h-2.996l2.104-13.856h2.854L108.692,62.711z M98.202,65.92
	c0.581-3.564-0.074-5.354-1.957-5.364c-1.262,0.041-2.204,0.793-2.827,2.26c-0.195,0.441-0.364,0.938-0.49,1.479
	c-0.161,0.604-0.285,1.194-0.374,1.783c-0.092,0.533-0.147,1.063-0.169,1.592c-0.026,0.529-0.021,1.025,0.013,1.482
	c0.038,0.463,0.137,0.874,0.301,1.229c0.313,0.853,0.926,1.277,1.845,1.291c1.313-0.033,2.268-0.841,2.868-2.429
	C97.72,68.455,97.985,67.35,98.202,65.92z M97.533,71.254c-0.129,0.181-0.25,0.324-0.354,0.443
	c-0.917,1.085-2.119,1.635-3.618,1.657c-0.61,0.011-1.163-0.069-1.664-0.229c-0.584-0.173-1.069-0.471-1.454-0.884
	c-0.391-0.42-0.679-0.923-0.862-1.516c-0.418-1.188-0.486-2.725-0.202-4.608c0.267-1.794,0.783-3.316,1.55-4.547
	c0.355-0.592,0.811-1.104,1.354-1.533c0.953-0.751,2.025-1.138,3.218-1.168c1.459-0.02,2.557,0.604,3.288,1.874
	c0.073,0.129,0.177,0.334,0.308,0.608l0.339-2.144l2.927-0.027l-2.145,14.129c-0.383,2.264-1.182,3.863-2.4,4.812
	c-0.68,0.529-1.383,0.896-2.105,1.095c-1.046,0.311-2.179,0.454-3.394,0.444c-0.514,0.01-0.969-0.01-1.361-0.056
	c-0.592-0.047-1.205-0.152-1.838-0.314l-0.711-0.186l0.437-2.87l0.502,0.355c0.395,0.285,0.755,0.512,1.08,0.673
	c0.836,0.461,1.707,0.697,2.605,0.713c1.552-0.021,2.673-0.641,3.365-1.856c0.391-0.679,0.713-1.938,0.976-3.795L97.533,71.254z
	 M82.978,65.007L82.978,65.007l-1.323-9.146l-4.186,9.146H82.978z M76.489,67.038l-2.798,6.003h-2.796l9.756-20.079h3.297
	l3.66,20.079h-3.313l-1.015-6.003H76.489z"/>
<path fill="#FFFFFF" d="M61.918,44.436c-1.07,5.315,1.602,11.468,5.461,15.456c2.133,2.203,1.181,6.294-1.661,8.677
	c-4.083,3.428-8.166,6.854-12.248,10.283c-1.138,0.954-2.442,1.521-3.724,1.715c-1.148-5.347,0.592-16.891,3.236-18.979
	c0.786-0.622,0.119-1.46-0.75-0.245c-3.421,4.794-5.616,12.732-5.507,18.917c-0.748-0.294-1.413-0.765-1.934-1.405
	c-2.77-3.43-5.541-6.855-8.31-10.283c-1.929-2.383-0.815-5.92,1.661-8.677c6.786-7.545,14.35-13.104,20.292-16.652
	C61.593,41.354,62.599,41.062,61.918,44.436"/>
<path fill="#003B4C" d="M185.43,55.277c-0.01-0.036-0.018-0.097-0.023-0.168c0.008-0.016,0.008-0.034,0.008-0.062c0,0,0,0,0-0.004
	v-0.003c0,0,0-0.004,0-0.007c0,0,0,0,0-0.003c0-0.004,0-0.004,0-0.004v-0.003v-0.069v-0.004c0-0.003,0-0.003,0-0.003s0,0,0-0.003
	c0-0.004,0-0.004,0-0.01c0,0,0-0.004,0-0.009c0-0.004,0-0.007,0-0.011c-0.004-0.086-0.018-0.157-0.043-0.215
	c-0.025-0.06-0.084-0.105-0.17-0.136c0.053-0.019,0.102-0.049,0.141-0.089c0.039-0.041,0.072-0.091,0.094-0.146
	c0.02-0.057,0.027-0.112,0.031-0.172c0-0.004,0-0.004,0-0.004v-0.003c0-0.004,0-0.004,0-0.007s0-0.007-0.004-0.015
	c-0.002-0.078-0.021-0.151-0.063-0.222c-0.037-0.077-0.096-0.136-0.178-0.183c-0.08-0.045-0.182-0.066-0.299-0.066h-0.883v0.004
	v1.729v0.003h0.355v-0.004V54.72h0.389c0.078,0,0.139,0.009,0.174,0.027c0.037,0.021,0.064,0.047,0.07,0.076
	c0.014,0.034,0.02,0.079,0.02,0.139v0.009c0,0,0,0,0,0.004c0,0.003,0,0.003,0,0.006v0.004c0,0,0,0.003,0,0.006
	c0,0.004,0,0.007,0,0.007c0,0.004,0,0.004,0,0.004c0,0.003,0,0.003,0,0.012l0.004,0.007c0,0.003,0,0.003,0,0.003
	c0,0.007,0,0.01,0,0.017c0,0,0,0,0,0.003c0,0.004,0,0.004,0,0.007c0,0.005,0,0.005,0,0.005v0.007c0,0.007,0,0.007,0,0.01
	c0,0.004,0,0.004,0,0.004s0,0.003,0,0.007c0,0,0,0,0,0.003s0.004,0.003,0.004,0.007s0,0.004,0,0.004v0.008c0,0,0,0,0,0.003
	c0,0.004,0,0.004,0,0.007s0,0.003,0,0.003v0.007c0,0,0,0,0,0.004c0,0.003,0,0.003,0,0.006c0,0.004,0,0.004,0,0.004v0.008
	c0,0,0,0,0,0.004c0,0.043,0.004,0.089,0.01,0.129c0.004,0.046,0.016,0.09,0.031,0.126h0.395v-0.004v-0.043v-0.007
	C185.459,55.34,185.439,55.314,185.43,55.277z M185.102,54.193c0,0.073-0.021,0.13-0.059,0.169
	c-0.033,0.042-0.102,0.063-0.195,0.063h-0.451v-0.457h0.461c0.084,0,0.15,0.023,0.188,0.066c0.035,0.043,0.059,0.092,0.059,0.152
	C185.102,54.189,185.102,54.192,185.102,54.193z"/>
<path fill="#003B4C" d="M184.768,52.797c-0.939,0-1.707,0.754-1.73,1.694c0,0.01,0,0.021,0,0.036c0,0.003,0,0.003,0,0.003
	c0,0.017,0,0.03,0,0.04c0.023,0.938,0.791,1.694,1.73,1.694c0.938,0,1.709-0.757,1.729-1.694c0-0.01,0-0.023,0-0.04c0,0,0,0,0-0.003
	c0-0.015,0-0.026,0-0.036C186.479,53.551,185.707,52.797,184.768,52.797z M186.213,54.53c0,0.014,0,0.021-0.004,0.033
	c-0.016,0.779-0.656,1.408-1.441,1.408c-0.783,0-1.422-0.629-1.445-1.408c0-0.012,0-0.021,0-0.033c0,0,0,0,0-0.003
	c0-0.01,0-0.023,0-0.03c0.023-0.78,0.662-1.409,1.445-1.409c0.785,0,1.428,0.629,1.441,1.409c0.004,0.007,0.004,0.021,0.004,0.03
	C186.213,54.53,186.213,54.53,186.213,54.53z"/>
</svg>
