<?xml version="1.0" encoding="UTF-8"?> <svg xmlns="http://www.w3.org/2000/svg" xmlns:xlink="http://www.w3.org/1999/xlink" xmlns:xodm="http://www.corel.com/coreldraw/odm/2003" xml:space="preserve" width="210mm" height="120mm" version="1.1" style="shape-rendering:geometricPrecision; text-rendering:geometricPrecision; image-rendering:optimizeQuality; fill-rule:evenodd; clip-rule:evenodd" viewBox="0 0 21000 12000"> <defs> <style type="text/css"> .fil3 {fill:#1F3C6E} .fil2 {fill:#55668F} .fil1 {fill:#8994B2} .fil0 {fill:#CED2DF} .fil4 {fill:#1F3C6E;fill-rule:nonzero} </style> </defs> <g id="Capa_x0020_1"> <metadata id="CorelCorpID_0Corel-Layer"></metadata> <g id="_1781570175184"> <path class="fil0" d="M10987.39 6976.47c-122.06,479.23 -244.12,958.51 -366.46,1437.74 234.26,1.7 468.85,3.11 703.11,4.76 122.62,-480.93 245.53,-961.57 368.16,-1442.55 -234.82,0.05 -469.93,0.05 -704.81,0.05z"></path> <path class="fil1" d="M12032.24 6588.35c-153.86,608.6 -307.67,1217.26 -461.53,1825.86 233.74,1.7 467.71,3.11 701.46,4.76 155.51,-610.3 311.36,-1220.37 466.86,-1830.67 -235.38,0.05 -471.11,0.05 -706.79,0.05z"></path> <path class="fil2" d="M13106.06 6113.61c-196.61,768.36 -393.44,1536.77 -590.06,2305.13 231.77,0 463.53,0 695.23,0 195.48,-768.36 390.95,-1536.77 586.15,-2305.13 -230.63,0 -460.97,0 -691.32,0z"></path> <path class="fil3" d="M3780.36 1474.37c1121.05,3.63 2922.18,11.23 3363.2,11.23 858.95,0 1440.85,727.88 1486.94,1246.79 17.18,191.79 -38.27,432.85 -48.36,469.98 -89.74,324.57 -286.02,547.31 -475.88,866.55 115.31,62.42 244.69,142.02 379.39,244.12 157.78,119.23 285.45,240.49 385.85,348.78 273.09,-1058.63 546.18,-2117.26 819.27,-3175.88 730.15,0 1015.6,0 1313.18,0 458.98,0 683.15,0 1097.74,-3.63 127.68,-1.14 265.21,0.85 467.44,3.63 418.5,5.89 403.88,1.13 580.76,0 325.98,-1.99 537.16,18.25 761.89,137.82 45.02,23.92 175.24,100.97 310.8,240.49 142.86,147.4 237.08,325.7 290.55,515.79 103.52,-155.23 354.67,-486.03 808.89,-703.11 354.39,-169.9 667.45,-192.98 901.42,-202.56l2439.27 0 -349.06 1337.9c0,0 -1097.75,-2.84 -1639.67,0 -375.2,0 -658.43,360.28 -468.57,571.23 285.73,318.96 1207.11,667.96 2016.85,1311.48 336.64,267.48 475.88,723.63 465.45,1115.15 -11.23,424.12 -278.7,739.96 -574.3,1007.72 -288.85,261.86 -965.54,665.74 -1611.55,662.06l-2818.72 5.04 365.9 -1423.1c0,0 1429.57,0.56 2140.04,0 245.26,2.27 544.76,-117.87 640.97,-261.58 95.93,-145.99 -12.64,-361.7 -174.95,-453.66 -788.88,-446.91 -1573.29,-918.54 -2223.55,-1572.49 -46.95,124.61 -108.86,253.7 -189.87,381.94 -477.86,756.57 -1213.06,1051.31 -1658.83,1051.31 -705.66,0 -2102.35,0 -2102.35,0 0,0 219.63,-837.3 329.33,-1272.07 534.39,4.47 1059.76,-1.42 1594.15,2.83 255.91,-2.27 599.07,-224.73 624.64,-588.36 14.91,-233.74 -132.21,-536.88 -505.42,-536.88 -542.83,1.7 -1085.32,3.4 -1628.16,4.76 -398.55,1550.84 -797.04,3101.61 -1195.6,4652.73 -513.01,0.57 -1026.02,1.42 -1538.98,1.99 67.8,-262.94 135.55,-526.23 203.36,-789.17l-8.45 -2.27c-218.84,217.14 -585.02,519.2 -1106.99,684.29 -357.73,113.33 -647.71,117.3 -906.18,119.22 -829.13,5.62 -1586.26,5.33 -2308.76,0 123.19,-469.98 246.39,-939.63 369.3,-1409.61 717.73,0.57 1435.24,1.42 2152.97,1.98 345.37,-13.49 656.73,-345.94 656.73,-615.4 0,-269.46 -213.17,-516.64 -675.84,-512.16l0 -2.27c-615.4,0.28 -1230.46,0.57 -1845.86,1.14 112.19,-442.44 224.16,-884.81 336.36,-1326.96 542.83,0.28 1085.89,0.57 1628.73,0.85 204.77,-45.01 311.36,-240.49 307.1,-433.42 -4.19,-217.98 -149.33,-372.92 -385.85,-372.92l-1541.48 0c-396.85,1556.45 -793.7,3112.61 -1190.55,4669.06 -531.84,0 -1063.96,0 -1595.79,0 510.74,-2003.64 1020.92,-4007 1531.1,-6010.36z"></path> <path class="fil4" d="M2432.88 9558.61c-15.47,64.41 -39.39,118.72 -71.15,163.1 -31.8,44.45 -79.59,77.05 -143.14,98.14 44.16,7.88 76.48,26.14 97.28,54.82 20.53,28.97 30.39,67.81 29.54,116.45 -0.57,30.96 -5.89,67.24 -16.05,108.28 -10.14,41.05 -18.82,72.57 -25.85,94.8 -7.02,22.22 -25.05,59.64 -54.25,112.19 -29.25,52.61 -72,96.49 -128.8,131.36 -56.53,34.86 -126.55,52.32 -209.82,52.32l-410.64 0.06 309.66 -1247.92 376.04 0c63.27,0 114.18,5.61 152.73,16.61 38.56,10.94 67.24,34.02 86.07,68.88 18.81,34.87 27.83,72.85 26.98,113.9 -0.28,31.8 -6.46,70.63 -18.6,117.01zm-347.29 562.5c9.58,-38.83 14.62,-70.3 14.91,-94.79 0.57,-34.29 -9.3,-59.07 -29.54,-73.98 -20.24,-14.91 -56.53,-22.5 -108.56,-22.5l-89.75 0.05 -94.79 377.74 49.78 -0.05 54.87 0c19.96,0 35.72,-0.56 47.51,-1.7 11.51,-1.14 29.25,-6.75 52.61,-16.62 23.36,-9.86 43.88,-30.09 61.06,-59.91 17.12,-30.05 31.18,-66.05 41.9,-108.24zm111.06 -552.35c7.02,-25.57 10.72,-47.51 11.22,-66.67 0.57,-25.57 -7.02,-44.73 -22.22,-57.38 -15.48,-12.64 -41.89,-19.1 -79.6,-19.1l-108.23 0 -80.45 321.16 43.32 0 21.66 0c37.7,0 68.37,-2.55 91.67,-7.59 23.35,-5.05 43.6,-16.05 60.49,-33.16 16.9,-17.19 29.54,-35.16 37.71,-54.04 7.88,-18.82 15.98,-46.66 24.43,-83.22zm1021.77 174.67l-150.18 602.42c-3.62,13.21 -7.31,30.11 -10.93,50.63 -3.64,20.52 -5.62,36.84 -5.9,49.21 -0.29,15.47 2.26,30.66 7.59,45.01l-223.09 0c-1.13,-4.48 -1.42,-12.08 -1.13,-23.36 0.29,-9.86 1.42,-21.65 3.91,-34.86 2.55,-13.22 4.77,-24.49 7.32,-33.18 -32.88,41.06 -71.15,72.3 -114.75,93.95 -43.59,21.65 -86.05,32.37 -127.11,32.37 -52.04,0 -95.35,-16.89 -129.65,-50.63 -34.3,-33.73 -50.91,-80.73 -50.06,-140.59 0.57,-24.5 8.17,-67.25 23.07,-128.24 14.92,-61.06 48.93,-112.49 101.83,-154.72 52.89,-42.17 124.04,-80.45 213.16,-114.74 89.46,-34.3 146.27,-61.57 171.27,-81.58 24.78,-19.96 41.33,-37.7 50.06,-53.18 8.72,-15.48 12.92,-30.11 13.21,-43.32 0.28,-19.96 -7.88,-36 -25.06,-48.36 -16.9,-12.07 -38.27,-18.26 -63.83,-18.26 -35.44,0 -66.96,11.52 -94.51,34.87 -27.55,23.36 -44.45,59.37 -50.91,108.29l-209.42 -0.06c10.71,-103.23 54.25,-181.7 130.5,-235.38 76.2,-53.75 162.82,-80.74 259.32,-80.74 81.01,0 148.76,16.05 203.91,48.36 54.83,32.09 81.87,75.4 81.02,129.66 -0.62,12.07 -3.68,27.55 -9.64,46.43zm-289.13 262.94l-181.42 104.88c-29.25,15.48 -51.48,37.71 -66.95,66.67 -15.48,28.97 -23.65,58.79 -23.93,89.75 -0.56,36.57 7.03,60.49 22.8,71.43 15.76,10.95 32.08,16.61 48.92,16.61 29.82,0 59.35,-11.51 88.04,-34.86 28.69,-23.36 48.93,-58.23 60.78,-104.89l51.76 -209.59zm1128.98 -236.53l-178.86 720.57 -209.54 0 159.19 -642.38c7.03,-19.96 10.72,-38.27 10.94,-54.83 0.57,-25.56 -6.46,-45.58 -20.52,-59.91 -14.06,-14.35 -32.37,-21.67 -54.54,-21.67 -26.7,0 -52.61,9.59 -77.9,28.13 -25.28,18.82 -45.57,46.14 -60.49,81.58l-166.5 668.8 -209.54 0 234.54 -943.32 209.54 0 -26.71 104.89c38.55,-43.31 78.75,-75.12 120.65,-95.64 41.9,-20.53 82.43,-30.67 121.21,-30.67 47.79,0 86.91,14.91 117.29,45.01 30.67,29.82 45.3,70.3 44.45,121.49 -0.57,25.35 -5.04,51.54 -13.21,77.95zm761.61 33.18l-18.02 75.4 -216.29 0 28.41 -105.74c0,-5.61 0.28,-12.92 0.28,-21.94 0.56,-39.12 -18.25,-58.79 -57.09,-58.79 -36.57,0 -64.12,17.46 -82.43,52.61 -18.25,35.16 -36,87.48 -52.61,157.49l-53.74 221.9c-19.96,68.88 -30.39,121.21 -30.97,156.64 -0.27,22.23 3.92,38.84 13.22,49.21 9.29,10.72 23.92,16.9 43.87,19.11 35.44,0 58.23,-10.71 68.1,-32.38 9.86,-21.65 23.36,-56.8 41.04,-105.72l21.38 -86.63 216.4 0.06 -21.38 86.62c-25.06,102.1 -66.95,178.3 -125.46,228.64 -58.51,50.35 -140.6,75.63 -245.82,75.63 -76.48,0 -134.43,-16.61 -173.82,-50.05 -39.41,-33.18 -58.51,-85.5 -57.09,-156.65 0.84,-43.31 8.73,-91.68 24.2,-145.13l75.12 -304.9c29.82,-122.35 77.05,-208.4 141.74,-258.18 64.68,-50.06 142.87,-75.12 235.1,-75.12 83.22,0 144,18.26 181.99,55.11 38.26,36.85 56.8,84.64 55.67,143.72 -1.14,25.96 -4.76,52.38 -11.8,79.09zm759.92 203.35c-32.6,150.74 -75.63,273.66 -129.66,368.44 -53.75,94.8 -162.25,142.31 -325.42,142.31 -102.1,0 -172.97,-20.53 -212.59,-61.57 -39.64,-41.04 -59.07,-97.57 -57.67,-169.57 0.86,-42.17 4.77,-79.88 11.8,-113.05 7.32,-33.16 26.98,-109.13 59.64,-227.22 32.6,-118.15 73.7,-218.55 123.48,-301.21 49.78,-82.71 148.76,-124.04 297.58,-124.04 102.1,0 172.97,18.54 212.88,55.67 39.91,37.13 59.07,96.77 57.65,178.87 -0.84,58.72 -13.48,142.52 -37.69,251.37zm-180 -171.55c7.03,-23.36 10.71,-43.31 10.94,-59.93 0.57,-28.96 -6.75,-50.34 -22.23,-64.96 -15.19,-14.35 -34.58,-21.67 -57.93,-21.67 -34.31,0 -66.68,12.93 -97.29,39.12 -30.39,26.14 -49.21,61.85 -56.8,107.44l-94.8 381.09c-4.76,14.34 -7.03,30.1 -7.59,46.71 -0.57,28.98 7.59,51.19 24.77,67.53 16.9,16.03 39.12,24.2 66.95,24.2 30.96,0 60.22,-11.79 87.2,-35.71 26.99,-23.93 44.17,-57.95 51.76,-102.39l95.02 -381.43zm1684.12 -587.29l-309.66 1242.83 -223.03 0.05 19.68 -78.17c-25.07,36.56 -54.54,64.4 -88.9,83.22 -34.3,18.82 -70.58,28.4 -109.42,28.4 -48.93,0 -89.74,-18.03 -122.9,-54.03 -33.18,-35.99 -49.21,-88.89 -48.08,-158.9 0.56,-27.84 4.19,-59.36 11.51,-94.79l103.8 -419.36c31.52,-87.48 74.55,-152.45 129.66,-194.63 55.1,-42.18 110.26,-63.27 165.65,-63.27 38.84,0 72.29,9.58 100.97,28.12 28.41,18.82 44.73,42.75 48.64,71.44l98.42 -390.96 223.66 0.05zm-380.81 627.2c6.47,-25.57 9.87,-46.72 10.15,-63.27 1.13,-62.14 -21.09,-93.09 -66.96,-93.09 -26.7,0 -53.45,13.5 -79.88,40.77 -26.7,27.27 -46.43,65.53 -59.64,115.59l-81.58 327.63c-5.89,25.57 -9.3,47.22 -9.58,64.96 -0.57,28.98 5.61,51.76 18.82,68.38 12.93,16.61 30.11,25.06 51.19,25.06 26.71,0 52.91,-13.49 79.03,-40.76 25.85,-27.27 45.59,-66.39 58.51,-117.3l79.94 -327.97zm1011.96 183.12l-435.39 0 -43.32 171.27c0,7.88 -0.28,19.39 -0.57,34.86 -0.56,27.83 7.32,49.21 23.08,64.12 15.76,14.91 36.56,22.51 61.85,22.51 36.57,0 69.16,-14.91 98.14,-45.01 28.69,-30.11 43.59,-73.14 44.73,-129.66l223.08 0c-1.69,98.7 -42.46,178.87 -122.34,240.49 -79.88,61.57 -168.49,92.24 -266.06,92.24 -76.48,0 -140.36,-21.09 -190.93,-63.27 -50.92,-42.18 -75.64,-104.38 -74.28,-186.46 0.29,-18.83 1.14,-33.73 2.56,-45.01 1.41,-10.95 4.75,-28.41 10.93,-51.49l82.15 -327.62c34.02,-114.18 86.91,-192.93 158.06,-236.24 71.15,-43.31 161.75,-64.97 271.4,-64.97 68.87,0 123.47,14.35 163.95,43.31 40.48,28.97 60.21,86.62 58.51,172.97 -1.42,77.9 -23.36,180.29 -65.55,307.96zm-144.84 -261.3c3.62,-12.08 5.33,-22.79 5.61,-31.52 0.29,-21.09 -7.88,-37.42 -25.06,-49.21 -16.9,-11.51 -37.7,-17.46 -62.14,-17.46 -30.95,0 -60.77,8.73 -88.6,25.85 -28.13,17.17 -45.58,41.33 -52.9,72.29l-25.05 104.88 223.08 0.11 25.06 -104.94zm1557.02 -549.02c78.74,0 137.53,22.23 176.08,66.39 38.55,44.17 57.37,101.26 55.95,170.99 -1.98,113.89 -47.5,222.74 -136.39,326.26 -88.9,103.53 -197.75,155.24 -326.27,155.24l-183.12 0.05 -130.51 524.24 -249.45 0 309.66 -1242.83 484.05 -0.05 0 -0.29zm-151.32 183.12l-129.66 0 -91.1 365.9 143.09 0c53.18,0 100.41,-25.85 142.02,-77.89 41.33,-51.76 62.7,-106.59 63.55,-163.97 0.56,-36.28 -9.3,-66.1 -30.1,-89.46 -21.04,-23.07 -53.35,-34.58 -97.8,-34.58zm946.38 104.6l-64.4 256.2c-7.89,0 -16.34,-0.28 -25.86,-0.86 -9.58,-0.56 -15.76,-0.84 -19.11,-0.84 -53.18,0 -97.56,11.79 -133.05,35.71 -35.44,23.93 -60.78,64.69 -76.2,122.35l-134.14 542.55 -216.34 0.05 232.62 -938.54 207.83 0 -41.04 166.5c44.45,-63.27 83.22,-106.59 117.01,-129.66 33.74,-23.36 61.85,-37.98 84.64,-44.16 23.3,-6.18 45.81,-9.3 68.04,-9.3zm608.09 522.6l-435.41 0 -43.31 171.27c0,7.88 -0.29,19.39 -0.57,34.86 -0.57,27.83 7.32,49.21 23.08,64.12 15.75,14.91 36.56,22.51 61.85,22.51 36.57,0 69.17,-14.91 98.13,-45.01 28.69,-30.11 43.6,-73.14 44.74,-129.66l223.07 0c-1.69,98.7 -42.46,178.87 -122.33,240.49 -79.88,61.57 -168.49,92.24 -266.07,92.24 -76.48,0 -140.36,-21.09 -190.93,-63.27 -50.92,-42.18 -75.63,-104.38 -74.27,-186.46 0.28,-18.83 1.13,-33.73 2.55,-45.01 1.42,-10.95 4.76,-28.41 10.94,-51.49l82.15 -327.62c34.01,-114.18 86.91,-192.93 158.06,-236.24 71.14,-43.31 161.74,-64.97 271.39,-64.97 68.6,0 123.47,14.35 163.95,43.31 40.48,28.97 60.21,86.62 58.51,172.97 -1.42,77.9 -23.36,180.29 -65.53,307.96zm-144.86 -261.3c3.63,-12.08 5.33,-22.79 5.61,-31.52 0.29,-21.09 -7.88,-37.42 -25.06,-49.21 -16.89,-11.51 -37.7,-17.46 -62.13,-17.46 -31.24,0 -60.78,8.73 -88.61,25.85 -28.12,17.17 -45.58,41.33 -52.89,72.29l-25.06 104.88 223.09 0.11 25.05 -104.94zm1105.57 -249.45l-444.07 943.31 -274.51 0 11.51 -943.31 236.29 0 -59.92 760.48 294.46 -760.48 236.24 0zm336.14 0l-234.54 943.31 -209.6 0 234.54 -943.31 209.6 0zm80.66 -327.97l-52.04 209.54 -209.48 0 52.05 -209.54 209.47 0zm629.75 615.69l-209.54 0c8.17,-22.23 12.36,-42.18 12.64,-59.93 0.58,-25.57 -6.74,-44.73 -21.36,-57.37 -14.63,-12.65 -33.17,-19.11 -55.4,-19.11 -26.7,0 -50.62,7.88 -72,23.36 -21.36,15.47 -32.37,35.43 -32.6,59.92 -0.56,30.11 17.18,61.06 53.18,93.09 53.75,41.06 107.72,81.58 162.55,121.5 59.91,56.52 89.46,120.36 88.33,191.22 -0.86,43.32 -13.22,91.96 -37.43,146.56 -24.21,54.25 -70.02,98.42 -136.97,132.21 -67.23,33.73 -136.68,50.62 -208.97,50.62 -73.13,0 -134.13,-18.25 -182.83,-54.82 -48.64,-36.57 -72.56,-90.83 -71.16,-163.11 0.58,-37.7 8.46,-78.74 23.93,-123.19l209.48 -0.06c-16.32,38.84 -24.49,71.44 -25.05,98.13 -0.57,25.58 5.6,44.17 18.25,55.68 12.64,11.5 29.25,17.46 50.35,17.46 30.09,0 58.78,-10.71 86.34,-32.37 27.55,-21.65 41.61,-46.94 42.18,-75.63 0.28,-12.07 -2.27,-23.64 -7.6,-34.02 -5.33,-10.42 -11.8,-20.23 -19.39,-29.25 -78.75,-63.27 -142.01,-119.79 -190.15,-169.57 -47.79,-49.78 -73.13,-86.06 -75.4,-108.27 -2.27,-22.23 -3.4,-37.15 -3.4,-45.03 0,-7.88 0.29,-13.21 0.29,-16.61 1.69,-95.35 39.62,-170.98 113.89,-227.22 74.26,-55.95 157.78,-84.08 251.15,-84.08 73.14,0 134.13,18.26 182.84,54.83 48.63,36.57 72.56,89.74 71.14,159.76 -0.96,28.34 -6.57,59.87 -17.29,95.3zm472.48 -287.72l-234.53 943.31 -209.55 0 234.54 -943.31 209.54 0zm80.73 -327.97l-52.05 209.54 -209.53 0 52.04 -209.54 209.54 0zm678.39 787.24c-32.6,150.74 -75.63,273.66 -129.66,368.44 -53.75,94.8 -162.25,142.31 -325.13,142.31 -102.1,0 -172.97,-20.53 -212.6,-61.57 -39.63,-41.04 -59.08,-97.57 -57.66,-169.57 0.86,-42.17 4.77,-79.88 12.08,-113.05 7.31,-33.16 26.98,-109.13 59.64,-227.22 32.6,-118.15 73.7,-218.55 123.48,-301.21 49.77,-82.71 148.76,-124.04 297.58,-124.04 102.1,0 172.96,18.54 212.88,55.67 39.91,37.13 59.07,96.77 57.65,178.87 -1.7,58.72 -14.05,142.52 -38.26,251.37zm-180 -171.55c7.03,-23.36 10.71,-43.31 10.94,-59.93 0.57,-28.96 -7.03,-50.34 -22.23,-64.96 -15.19,-14.35 -34.58,-21.67 -57.93,-21.67 -34.3,0 -66.96,12.93 -97.29,39.12 -30.38,26.14 -49.21,61.85 -56.8,107.44l-94.8 381.09c-4.76,14.34 -7.31,30.1 -7.59,46.71 -0.57,28.98 7.59,51.19 24.77,67.53 16.9,16.03 39.4,24.2 66.95,24.2 30.96,0 60.22,-11.79 87.2,-35.71 26.99,-23.93 44.17,-57.95 51.76,-102.39l95.02 -381.43zm331.87 -612.28l-310.5 249.44 -169.57 0 217.42 -249.44 262.65 0zm727.61 547.3l-178.87 720.57 -209.53 0 159.19 -642.38c7.02,-19.96 10.72,-38.27 10.93,-54.83 0.58,-25.56 -6.46,-45.58 -20.52,-59.91 -14.05,-14.35 -32.37,-21.67 -54.54,-21.67 -26.69,0 -52.6,9.59 -77.89,28.13 -25.28,18.82 -45.58,46.14 -60.49,81.58l-166.5 668.8 -209.55 0 234.54 -943.32 209.54 0 -26.7 104.89c38.55,-43.31 78.74,-75.12 120.64,-95.64 41.9,-20.53 82.43,-30.67 121.22,-30.67 47.79,0 86.9,14.91 117.29,45.01 30.39,29.82 45.3,70.3 44.45,121.49 -0.86,25.35 -5.05,51.54 -13.21,77.95zm1451.51 -131.35l-223.03 0c10.71,-39.91 16.32,-73.7 16.89,-101.54 0.85,-42.17 -8.16,-72.56 -26.71,-91.38 -18.53,-18.83 -42.74,-28.4 -72.85,-28.4 -39.91,0 -77.89,14.62 -113.89,44.15 -36,29.26 -54.26,63.55 -55.1,102.39 -0.29,17.75 3.62,34.87 11.5,51.48 8.17,16.61 20.81,33.16 38.28,49.77 72.28,57.66 144.27,114.76 216.55,171.27 81.87,75.41 122.07,162.55 120.36,261.3 -2.26,125.47 -53.45,227.23 -153.29,305.47 -100.12,78.17 -210.1,117.29 -329.9,117.29 -88.89,0 -162.03,-23.64 -219.91,-70.58 -57.94,-47.23 -86.05,-116.73 -84.65,-208.68 0.86,-53.18 13.5,-114.18 38.28,-183.13l236.18 -0.05c-11.5,28.97 -19.67,55.11 -24.77,79.03 -4.77,23.93 -7.32,45.87 -7.88,65.82 -0.86,44.45 9.57,77.05 30.66,98.13 21.38,21.09 49.21,31.52 83.52,31.52 43.3,0 84.07,-15.47 122.33,-46.71 38.28,-30.96 57.67,-68.6 58.51,-113.05 0.57,-25.57 -5.89,-50.62 -18.54,-75.62 -12.92,-25.06 -43.59,-57.94 -92.23,-98.99 -48.65,-41.04 -105.74,-89.74 -171.27,-146.55 -69.73,-70.87 -104.09,-145.41 -102.67,-223.03 0.57,-27.84 10.94,-75.12 31.52,-142.3 20.52,-67.24 73.99,-129.38 160.61,-187.31 86.34,-57.66 177.16,-86.63 272.8,-86.63 84.36,0 153.59,23.36 207.56,70.02 54.02,46.71 80.45,114.18 78.74,203.07 -0.9,45.81 -10.14,96.71 -27.6,153.24zm768.92 367.88c-32.6,150.74 -75.63,273.66 -129.66,368.44 -53.74,94.8 -162.26,142.31 -325.13,142.31 -102.1,0 -172.97,-20.53 -212.6,-61.57 -39.62,-41.04 -59.07,-97.57 -57.65,-169.57 0.84,-42.17 4.76,-79.88 12.07,-113.05 7.32,-33.16 26.99,-109.13 59.64,-227.22 32.6,-118.15 73.7,-218.55 123.48,-301.21 49.78,-82.71 148.76,-124.04 297.58,-124.04 102.11,0 172.97,18.54 212.88,55.67 39.91,37.13 59.07,96.77 57.66,178.87 -1.7,58.72 -14.34,142.52 -38.27,251.37zm-180.29 -171.55c7.04,-23.36 10.72,-43.31 10.95,-59.93 0.56,-28.96 -7.03,-50.34 -22.22,-64.96 -15.2,-14.35 -34.58,-21.67 -57.94,-21.67 -34.31,0 -66.96,12.93 -97.29,39.12 -30.39,26.14 -49.21,61.85 -56.8,107.44l-94.79 381.09c-4.77,14.34 -7.32,30.1 -7.6,46.71 -0.57,28.98 7.6,51.19 24.77,67.53 16.89,16.03 39.4,24.2 66.96,24.2 30.95,0 60.2,-11.79 87.19,-35.71 26.99,-23.93 44.16,-57.95 51.76,-102.39l95.01 -381.43zm987.48 -31.8l-18.02 75.4 -216.23 0 28.4 -105.74c0,-5.61 0.29,-12.92 0.29,-21.94 0.56,-39.12 -18.26,-58.79 -57.09,-58.79 -36.57,0 -64.13,17.46 -82.44,52.61 -18.26,35.16 -36,87.48 -52.61,157.49l-53.75 221.9c-19.95,68.88 -30.38,121.21 -30.95,156.64 -0.28,22.23 3.91,38.84 13.21,49.21 9.3,10.72 23.93,16.9 43.88,19.11 35.44,0 58.22,-10.71 68.09,-32.38 9.87,-21.65 23.36,-56.8 41.05,-105.72l21.38 -86.63 216.33 0.06 -21.37 86.62c-25.06,102.1 -66.95,178.3 -125.46,228.64 -58.51,50.35 -140.61,75.63 -245.82,75.63 -76.48,0 -134.43,-16.61 -173.82,-50.05 -39.41,-33.45 -58.51,-85.5 -57.09,-156.65 0.84,-43.31 8.72,-91.68 24.2,-145.13l75.12 -304.9c29.82,-122.35 77.05,-208.4 141.74,-258.18 64.68,-50.06 142.86,-75.12 235.1,-75.12 83.22,0 143.71,18.26 181.98,55.11 38.27,36.85 56.81,84.64 55.68,143.72 -1.08,25.96 -4.76,52.38 -11.8,79.09zm455.37 -255.92l-234.54 943.31 -209.55 0 234.54 -943.31 209.55 0zm80.43 -327.97l-52.03 209.54 -209.55 0 52.05 -209.54 209.53 0zm718.02 524.3l-150.18 602.42c-3.62,13.21 -7.31,30.11 -10.93,50.63 -3.64,20.52 -5.62,36.84 -5.9,49.21 -0.29,15.47 2.26,30.66 7.59,45.01l-223.08 0c-1.14,-4.48 -1.42,-12.08 -1.14,-23.36 0.29,-9.86 1.42,-21.65 3.91,-34.86 2.55,-13.22 4.77,-24.49 7.32,-33.18 -32.88,41.06 -71.15,72.3 -114.75,93.95 -43.59,21.65 -86.05,32.37 -127.11,32.37 -52.03,0 -95.35,-16.89 -129.65,-50.63 -34.3,-33.73 -50.91,-80.73 -50.06,-140.59 0.57,-24.5 8.17,-67.25 23.07,-128.24 14.92,-61.06 48.93,-112.49 101.83,-154.72 52.89,-42.17 124.04,-80.45 213.16,-114.74 89.46,-34.3 146.26,-61.57 170.98,-81.58 24.78,-19.96 41.33,-37.7 50.07,-53.18 8.73,-15.48 12.93,-30.11 13.2,-43.32 0.29,-19.96 -7.88,-36 -25.05,-48.36 -17.18,-12.07 -38.27,-18.26 -63.84,-18.26 -35.44,0 -66.95,11.52 -94.51,34.87 -27.55,23.36 -44.73,59.37 -50.91,108.29l-209.42 -0.06c10.72,-103.23 54.25,-181.7 130.51,-235.38 76.19,-53.75 162.81,-80.74 259.31,-80.74 81.01,0 148.76,16.05 203.93,48.36 54.81,32.09 81.85,75.4 81.01,129.66 -0.62,12.07 -3.46,27.55 -9.36,46.43zm-289.13 262.94l-181.42 104.88c-29.25,15.48 -51.48,37.71 -66.95,66.67 -15.48,28.97 -23.65,58.79 -23.92,89.75 -0.57,36.57 7.02,60.49 22.78,71.43 15.77,10.95 32.09,16.61 48.65,16.61 30.1,0 59.36,-11.51 88.05,-34.86 28.67,-23.36 48.92,-58.23 61.05,-104.89l51.76 -209.59zm858.95 -787.24l-314.98 1271.23 -223.03 0.05 314.99 -1271.22 223.02 -0.06z"></path> </g> </g> </svg> 