<svg width="1889" height="497" viewBox="0 0 1889 497" fill="none" xmlns="http://www.w3.org/2000/svg">
<path d="M280.489 3.51934C276.989 0.019336 271.589 -0.980664 267.089 1.01934L7.08873 117.219C0.0887313 120.319 -2.21122 129.219 2.38878 135.419L178.089 371.519V105.219H382.489L280.489 3.51934ZM518.289 240.819L429.689 152.419H225.189V434.919L266.289 490.219C270.689 496.119 279.289 496.719 284.489 491.519L518.289 257.919C522.989 253.119 522.989 245.519 518.289 240.819Z" fill="#FF0032"/>
<path d="M657.089 372.519C634.289 360.319 616.389 343.319 603.389 321.519C590.389 299.819 583.789 275.219 583.789 247.819C583.789 220.419 590.289 195.919 603.389 174.119C616.389 152.419 634.289 135.419 657.089 123.119C679.889 110.919 705.489 104.719 733.889 104.719C757.889 104.719 779.489 108.919 798.889 117.319C818.289 125.719 834.489 137.819 847.689 153.619L806.589 191.519C787.889 169.919 764.689 159.119 737.089 159.119C719.989 159.119 704.689 162.919 691.289 170.419C677.889 177.919 667.389 188.419 659.889 201.819C652.389 215.219 648.589 230.519 648.589 247.619C648.589 264.719 652.389 280.019 659.889 293.419C667.389 306.819 677.889 317.319 691.289 324.819C704.689 332.319 719.989 336.119 737.089 336.119C764.689 336.119 787.889 325.219 806.589 303.319L847.689 341.219C834.489 357.319 818.189 369.519 798.689 377.919C779.189 386.319 757.489 390.519 733.489 390.519C705.389 390.919 679.889 384.819 657.089 372.519Z" fill="#FF0032"/>
<path d="M1090.59 173.619V386.119H1031.69V361.619C1016.39 380.019 994.289 389.319 965.289 389.319C945.289 389.319 927.189 384.819 910.989 375.919C894.789 367.019 882.089 354.219 872.889 337.619C863.689 321.019 859.089 301.819 859.089 279.919C859.089 258.019 863.689 238.819 872.889 222.219C882.089 205.619 894.789 192.819 910.989 183.919C927.189 175.019 945.289 170.519 965.289 170.519C992.389 170.519 1013.59 179.119 1028.89 196.219V173.719H1090.59V173.619ZM1014.79 322.719C1025.09 312.019 1030.19 297.819 1030.19 279.819C1030.19 261.919 1025.09 247.619 1014.79 236.919C1004.49 226.219 991.589 220.919 976.089 220.919C960.289 220.919 947.289 226.219 936.989 236.919C926.689 247.619 921.589 261.919 921.589 279.819C921.589 297.719 926.689 312.019 936.989 322.719C947.289 333.419 960.289 338.719 976.089 338.719C991.589 338.719 1004.49 333.419 1014.79 322.719Z" fill="#FF0032"/>
<path d="M1163.29 382.819C1146.39 378.519 1132.99 373.019 1122.99 366.419L1143.49 322.219C1152.99 328.319 1164.39 333.219 1177.89 337.019C1191.29 340.819 1204.49 342.719 1217.39 342.719C1243.49 342.719 1256.49 336.319 1256.49 323.319C1256.49 317.219 1252.89 312.919 1245.79 310.319C1238.69 307.719 1227.79 305.419 1212.99 303.619C1195.59 301.019 1181.29 297.919 1169.89 294.519C1158.59 291.119 1148.79 285.019 1140.49 276.319C1132.19 267.619 1128.09 255.219 1128.09 239.219C1128.09 225.819 1131.99 213.919 1139.79 203.519C1147.59 193.119 1158.89 185.019 1173.79 179.219C1188.69 173.419 1206.29 170.519 1226.49 170.519C1241.49 170.519 1256.49 172.119 1271.29 175.419C1286.19 178.719 1298.49 183.219 1308.19 189.019L1287.69 232.819C1268.99 222.319 1248.59 217.019 1226.49 217.019C1213.29 217.019 1203.49 218.819 1196.89 222.519C1190.29 226.219 1186.99 230.919 1186.99 236.719C1186.99 243.319 1190.59 247.919 1197.69 250.519C1204.79 253.119 1216.09 255.619 1231.69 258.019C1249.09 260.919 1263.29 264.019 1274.39 267.319C1285.49 270.619 1295.09 276.619 1303.19 285.319C1311.39 294.019 1315.39 306.119 1315.39 321.619C1315.39 334.819 1311.49 346.519 1303.59 356.819C1295.69 367.119 1284.19 375.019 1268.99 380.719C1253.89 386.419 1235.89 389.219 1215.09 389.219C1197.39 389.319 1180.09 387.119 1163.29 382.819Z" fill="#FF0032"/>
<path d="M1477.29 375.919C1471.19 380.419 1463.79 383.719 1454.99 386.019C1446.19 388.219 1436.99 389.419 1427.49 389.419C1401.99 389.419 1382.29 382.919 1368.59 370.019C1354.89 357.119 1348.09 338.119 1348.09 313.119V126.619H1409.69V178.419H1462.19V225.819H1409.69V312.319C1409.69 321.319 1411.89 328.219 1416.39 333.019C1420.89 337.919 1427.29 340.319 1435.79 340.319C1445.29 340.319 1453.69 337.719 1461.09 332.419L1477.29 375.919Z" fill="#FF0032"/>
<path d="M1596.79 178.419C1609.29 173.119 1623.69 170.519 1640.09 170.519V227.419C1633.19 226.919 1628.59 226.619 1626.29 226.619C1608.69 226.619 1594.79 231.519 1584.79 241.419C1574.79 251.319 1569.79 266.119 1569.79 285.819V386.119H1508.19V173.619H1567.09V201.619C1574.29 191.419 1584.19 183.619 1596.79 178.419Z" fill="#FF0032"/>
<path d="M1711.69 375.319C1693.89 366.019 1679.99 353.019 1669.99 336.419C1659.99 319.819 1654.99 301.019 1654.99 279.919C1654.99 258.819 1659.99 240.019 1669.99 223.419C1679.99 206.819 1693.89 193.819 1711.69 184.519C1729.49 175.219 1749.59 170.519 1771.89 170.519C1794.29 170.519 1814.29 175.219 1831.89 184.519C1849.49 193.919 1863.39 206.819 1873.39 223.419C1883.39 240.019 1888.39 258.819 1888.39 279.919C1888.39 301.019 1883.39 319.819 1873.39 336.419C1863.39 353.019 1849.59 366.019 1831.89 375.319C1814.29 384.719 1794.19 389.319 1771.89 389.319C1749.59 389.319 1729.49 384.619 1711.69 375.319ZM1810.79 322.719C1820.89 312.019 1825.99 297.819 1825.99 279.819C1825.99 261.919 1820.89 247.619 1810.79 236.919C1800.69 226.219 1787.69 220.919 1771.89 220.919C1756.09 220.919 1743.09 226.219 1732.79 236.919C1722.49 247.619 1717.39 261.919 1717.39 279.819C1717.39 297.719 1722.49 312.019 1732.79 322.719C1743.09 333.419 1756.09 338.719 1771.89 338.719C1787.69 338.719 1800.69 333.419 1810.79 322.719Z" fill="#FF0032"/>
<path d="M642.789 431.219V495.419H627.889V469.119H598.689V495.419H583.789V431.219H598.689V456.519H627.889V431.219H642.789Z" fill="#50505A"/>
<path d="M696.789 450.819C700.889 454.419 702.889 459.919 702.889 467.319V495.419H689.489V489.319C686.789 493.919 681.789 496.219 674.489 496.219C670.689 496.219 667.389 495.619 664.589 494.319C661.789 493.019 659.689 491.219 658.189 489.019C656.689 486.719 655.989 484.219 655.989 481.319C655.989 476.719 657.689 473.119 661.189 470.519C664.689 467.919 669.989 466.619 677.189 466.619H688.589C688.589 463.519 687.689 461.119 685.789 459.419C683.889 457.719 681.089 456.919 677.289 456.919C674.689 456.919 672.089 457.319 669.589 458.119C667.089 458.919 664.889 460.019 663.089 461.419L657.989 451.419C660.689 449.519 663.889 448.019 667.689 447.019C671.489 446.019 675.289 445.419 679.289 445.419C686.789 445.319 692.689 447.119 696.789 450.819ZM684.589 484.819C686.489 483.719 687.789 482.019 688.589 479.819V474.819H678.789C672.889 474.819 669.989 476.719 669.989 480.619C669.989 482.419 670.689 483.919 672.189 485.019C673.589 486.119 675.589 486.619 678.089 486.619C680.489 486.519 682.689 485.919 684.589 484.819Z" fill="#50505A"/>
<path d="M728.389 492.919C724.189 490.719 720.889 487.719 718.589 483.919C716.189 480.019 715.089 475.719 715.089 470.819C715.089 465.919 716.289 461.519 718.589 457.719C720.989 453.819 724.189 450.819 728.389 448.719C732.589 446.519 737.289 445.419 742.589 445.419C747.789 445.419 752.289 446.519 756.189 448.719C760.089 450.919 762.889 454.019 764.689 458.019L753.589 464.019C750.989 459.519 747.289 457.219 742.489 457.219C738.789 457.219 735.689 458.419 733.189 460.919C730.789 463.319 729.489 466.719 729.489 470.919C729.489 475.119 730.689 478.519 733.189 480.919C735.589 483.319 738.689 484.619 742.489 484.619C747.389 484.619 751.089 482.319 753.589 477.819L764.689 483.919C762.889 487.819 760.089 490.919 756.189 493.119C752.289 495.319 747.789 496.419 742.589 496.419C737.289 496.119 732.589 495.119 728.389 492.919Z" fill="#50505A"/>
<path d="M822.589 474.819H785.289C785.989 477.919 787.589 480.319 790.089 482.019C792.589 483.819 795.689 484.719 799.489 484.719C802.089 484.719 804.289 484.319 806.289 483.619C808.289 482.819 810.089 481.619 811.789 480.019L819.389 488.319C814.789 493.619 807.989 496.319 798.989 496.319C793.389 496.319 788.489 495.219 784.189 493.019C779.889 490.819 776.589 487.819 774.289 484.019C771.989 480.119 770.789 475.819 770.789 470.919C770.789 466.119 771.889 461.719 774.189 457.819C776.489 453.919 779.589 450.919 783.589 448.719C787.589 446.519 792.089 445.419 796.989 445.419C801.789 445.419 806.189 446.419 810.089 448.519C813.989 450.619 817.089 453.619 819.289 457.419C821.489 461.319 822.589 465.819 822.589 470.919C822.889 471.119 822.789 472.419 822.589 474.819ZM789.089 458.919C786.889 460.719 785.589 463.219 785.089 466.419H809.389C808.889 463.319 807.589 460.819 805.389 458.919C803.189 457.019 800.489 456.119 797.289 456.119C794.089 456.119 791.289 457.119 789.089 458.919Z" fill="#50505A"/>
<path d="M912.589 450.819C916.189 454.419 918.089 459.919 918.089 467.219V495.419H903.789V469.419C903.789 465.519 902.989 462.619 901.389 460.619C899.789 458.719 897.489 457.719 894.489 457.719C891.089 457.719 888.489 458.819 886.489 461.019C884.489 463.219 883.589 466.419 883.589 470.719V495.419H869.289V469.419C869.289 461.619 866.189 457.819 859.889 457.819C856.589 457.819 853.989 458.919 851.989 461.119C849.989 463.319 849.089 466.519 849.089 470.819V495.419H834.789V446.119H848.489V451.819C850.289 449.719 852.589 448.119 855.189 447.019C857.889 445.919 860.789 445.419 863.989 445.419C867.489 445.419 870.589 446.119 873.389 447.519C876.189 448.919 878.489 450.919 880.189 453.519C882.189 450.919 884.789 448.919 887.889 447.519C890.989 446.119 894.389 445.419 897.989 445.419C904.089 445.319 908.989 447.119 912.589 450.819Z" fill="#50505A"/>
<path d="M943.289 492.919C939.189 490.719 935.889 487.719 933.589 483.919C931.289 480.019 930.089 475.719 930.089 470.819C930.089 465.919 931.289 461.519 933.589 457.719C935.889 453.819 939.089 450.819 943.289 448.719C947.389 446.519 952.089 445.419 957.289 445.419C962.489 445.419 967.089 446.519 971.189 448.719C975.289 450.919 978.489 453.919 980.789 457.719C983.089 461.619 984.289 465.919 984.289 470.819C984.289 475.719 983.089 480.119 980.789 483.919C978.489 487.819 975.289 490.819 971.189 492.919C967.089 495.119 962.489 496.219 957.289 496.219C952.089 496.119 947.389 495.119 943.289 492.919ZM966.289 480.719C968.689 478.219 969.789 474.919 969.789 470.719C969.789 466.519 968.589 463.219 966.289 460.719C963.889 458.219 960.889 457.019 957.289 457.019C953.689 457.019 950.589 458.219 948.189 460.719C945.789 463.219 944.589 466.519 944.589 470.719C944.589 474.919 945.789 478.219 948.189 480.719C950.589 483.219 953.589 484.419 957.289 484.419C960.989 484.419 963.889 483.219 966.289 480.719Z" fill="#50505A"/>
<path d="M1000.69 494.619C996.789 493.619 993.689 492.319 991.289 490.819L996.089 480.519C998.289 481.919 1000.99 483.119 1004.09 483.919C1007.19 484.719 1010.29 485.219 1013.29 485.219C1019.39 485.219 1022.39 483.719 1022.39 480.719C1022.39 479.319 1021.59 478.319 1019.89 477.719C1018.19 477.119 1015.69 476.619 1012.29 476.119C1008.29 475.519 1004.89 474.819 1002.29 474.019C999.689 473.219 997.389 471.819 995.489 469.819C993.589 467.819 992.589 464.919 992.589 461.219C992.589 458.119 993.489 455.319 995.289 452.919C997.089 450.519 999.689 448.619 1003.19 447.319C1006.69 446.019 1010.69 445.319 1015.39 445.319C1018.89 445.319 1022.39 445.719 1025.79 446.419C1029.29 447.219 1032.09 448.219 1034.39 449.619L1029.59 459.819C1025.29 457.419 1020.49 456.119 1015.39 456.119C1012.29 456.119 1009.99 456.519 1008.49 457.419C1006.99 458.319 1006.19 459.419 1006.19 460.719C1006.19 462.219 1006.99 463.319 1008.69 463.919C1010.39 464.519 1012.99 465.119 1016.59 465.619C1020.59 466.319 1023.89 467.019 1026.49 467.819C1029.09 468.619 1031.29 470.019 1033.19 472.019C1035.09 474.019 1035.99 476.819 1035.99 480.419C1035.99 483.519 1035.09 486.219 1033.19 488.619C1031.39 491.019 1028.69 492.819 1025.19 494.119C1021.69 495.419 1017.49 496.119 1012.69 496.119C1008.59 496.119 1004.59 495.619 1000.69 494.619Z" fill="#50505A"/>
<path d="M1107.19 493.019C1105.79 494.019 1104.09 494.819 1101.99 495.319C1099.99 495.819 1097.79 496.119 1095.49 496.119C1089.59 496.119 1085.09 494.619 1081.89 491.619C1078.69 488.619 1077.09 484.219 1077.09 478.419V458.119H1069.49V447.119H1077.09V435.119H1091.39V447.119H1103.69V458.119H1091.39V478.219C1091.39 480.319 1091.89 481.919 1092.99 483.019C1094.09 484.119 1095.59 484.719 1097.49 484.719C1099.79 484.719 1101.69 484.119 1103.29 482.919L1107.19 493.019Z" fill="#50505A"/>
<path d="M1167.29 446.119V495.419H1153.69V489.519C1151.79 491.619 1149.49 493.319 1146.89 494.419C1144.29 495.519 1141.39 496.119 1138.39 496.119C1131.89 496.119 1126.79 494.219 1122.99 490.519C1119.19 486.819 1117.29 481.219 1117.29 473.919V446.019H1131.59V471.819C1131.59 479.719 1134.89 483.719 1141.59 483.719C1144.99 483.719 1147.79 482.619 1149.89 480.419C1151.99 478.219 1152.99 474.919 1152.99 470.419V446.019H1167.29V446.119Z" fill="#50505A"/>
<path d="M1220.79 492.919C1216.59 490.719 1213.29 487.719 1210.99 483.919C1208.59 480.019 1207.49 475.719 1207.49 470.819C1207.49 465.919 1208.69 461.519 1210.99 457.719C1213.39 453.819 1216.59 450.819 1220.79 448.719C1224.99 446.519 1229.69 445.419 1234.99 445.419C1240.19 445.419 1244.69 446.519 1248.59 448.719C1252.49 450.919 1255.29 454.019 1257.09 458.019L1245.99 464.019C1243.39 459.519 1239.69 457.219 1234.89 457.219C1231.19 457.219 1228.09 458.419 1225.59 460.919C1223.19 463.319 1221.89 466.719 1221.89 470.919C1221.89 475.119 1223.09 478.519 1225.59 480.919C1227.99 483.319 1231.09 484.619 1234.89 484.619C1239.79 484.619 1243.49 482.319 1245.99 477.819L1257.09 483.919C1255.29 487.819 1252.49 490.919 1248.59 493.119C1244.69 495.319 1240.19 496.419 1234.99 496.419C1229.69 496.119 1224.99 495.119 1220.79 492.919Z" fill="#50505A"/>
<path d="M1305.09 450.819C1309.19 454.419 1311.19 459.919 1311.19 467.319V495.419H1297.79V489.319C1295.09 493.919 1290.09 496.219 1282.79 496.219C1278.99 496.219 1275.69 495.619 1272.89 494.319C1270.09 493.019 1267.99 491.219 1266.49 489.019C1264.99 486.719 1264.29 484.219 1264.29 481.319C1264.29 476.719 1265.99 473.119 1269.49 470.519C1272.99 467.919 1278.29 466.619 1285.49 466.619H1296.89C1296.89 463.519 1295.99 461.119 1294.09 459.419C1292.19 457.719 1289.39 456.919 1285.59 456.919C1282.99 456.919 1280.39 457.319 1277.79 458.119C1275.29 458.919 1273.09 460.019 1271.29 461.419L1266.19 451.419C1268.89 449.519 1272.09 448.019 1275.89 447.019C1279.69 446.019 1283.49 445.419 1287.49 445.419C1295.19 445.319 1300.99 447.119 1305.09 450.819ZM1292.89 484.819C1294.79 483.719 1296.09 482.019 1296.89 479.819V474.819H1287.09C1281.19 474.819 1278.29 476.719 1278.29 480.619C1278.29 482.419 1278.99 483.919 1280.49 485.019C1281.89 486.119 1283.89 486.619 1286.39 486.619C1288.89 486.519 1290.99 485.919 1292.89 484.819Z" fill="#50505A"/>
<path d="M1331.09 494.619C1327.19 493.619 1324.09 492.319 1321.69 490.819L1326.49 480.519C1328.69 481.919 1331.39 483.119 1334.49 483.919C1337.59 484.719 1340.69 485.219 1343.69 485.219C1349.79 485.219 1352.79 483.719 1352.79 480.719C1352.79 479.319 1351.99 478.319 1350.29 477.719C1348.59 477.119 1346.09 476.619 1342.69 476.119C1338.69 475.519 1335.29 474.819 1332.69 474.019C1330.09 473.219 1327.79 471.819 1325.89 469.819C1323.99 467.819 1322.99 464.919 1322.99 461.219C1322.99 458.119 1323.89 455.319 1325.69 452.919C1327.49 450.519 1330.09 448.619 1333.59 447.319C1337.09 446.019 1341.09 445.319 1345.79 445.319C1349.29 445.319 1352.79 445.719 1356.19 446.419C1359.69 447.219 1362.49 448.219 1364.79 449.619L1359.99 459.819C1355.69 457.419 1350.89 456.119 1345.79 456.119C1342.69 456.119 1340.39 456.519 1338.89 457.419C1337.39 458.319 1336.59 459.419 1336.59 460.719C1336.59 462.219 1337.39 463.319 1339.09 463.919C1340.79 464.519 1343.39 465.119 1346.99 465.619C1350.99 466.319 1354.29 467.019 1356.89 467.819C1359.49 468.619 1361.69 470.019 1363.59 472.019C1365.49 474.019 1366.39 476.819 1366.39 480.419C1366.39 483.519 1365.49 486.219 1363.59 488.619C1361.79 491.019 1359.09 492.819 1355.59 494.119C1352.09 495.419 1347.89 496.119 1343.09 496.119C1338.99 496.119 1334.99 495.619 1331.09 494.619Z" fill="#50505A"/>
<path d="M1414.99 450.819C1419.09 454.419 1421.09 459.919 1421.09 467.319V495.419H1407.69V489.319C1404.99 493.919 1399.99 496.219 1392.69 496.219C1388.89 496.219 1385.59 495.619 1382.79 494.319C1379.99 493.019 1377.89 491.219 1376.39 489.019C1374.89 486.719 1374.19 484.219 1374.19 481.319C1374.19 476.719 1375.89 473.119 1379.39 470.519C1382.89 467.919 1388.19 466.619 1395.39 466.619H1406.79C1406.79 463.519 1405.89 461.119 1403.99 459.419C1402.09 457.719 1399.29 456.919 1395.49 456.919C1392.89 456.919 1390.29 457.319 1387.69 458.119C1385.19 458.919 1382.99 460.019 1381.19 461.419L1376.09 451.419C1378.79 449.519 1381.99 448.019 1385.79 447.019C1389.59 446.019 1393.39 445.419 1397.39 445.419C1404.99 445.319 1410.89 447.119 1414.99 450.819ZM1402.79 484.819C1404.69 483.719 1405.99 482.019 1406.79 479.819V474.819H1396.99C1391.09 474.819 1388.19 476.719 1388.19 480.619C1388.19 482.419 1388.89 483.919 1390.39 485.019C1391.79 486.119 1393.79 486.619 1396.29 486.619C1398.79 486.519 1400.89 485.919 1402.79 484.819Z" fill="#50505A"/>
<path d="M1485.19 447.219C1488.09 446.019 1491.49 445.419 1495.19 445.419V458.619C1493.59 458.519 1492.49 458.419 1491.99 458.419C1487.89 458.419 1484.69 459.519 1482.39 461.819C1480.09 464.119 1478.89 467.519 1478.89 472.119V495.419H1464.59V446.119H1478.29V452.619C1479.99 450.219 1482.29 448.419 1485.19 447.219Z" fill="#50505A"/>
<path d="M1553.69 474.819H1516.39C1517.09 477.919 1518.69 480.319 1521.19 482.019C1523.69 483.819 1526.79 484.719 1530.59 484.719C1533.19 484.719 1535.39 484.319 1537.39 483.619C1539.39 482.819 1541.19 481.619 1542.89 480.019L1550.49 488.319C1545.89 493.619 1539.09 496.319 1530.09 496.319C1524.49 496.319 1519.59 495.219 1515.29 493.019C1510.99 490.819 1507.69 487.819 1505.39 484.019C1503.09 480.119 1501.89 475.819 1501.89 470.919C1501.89 466.119 1502.99 461.719 1505.29 457.819C1507.59 453.919 1510.69 450.919 1514.69 448.719C1518.69 446.519 1523.19 445.419 1528.09 445.419C1532.89 445.419 1537.29 446.419 1541.19 448.519C1545.09 450.619 1548.19 453.619 1550.39 457.419C1552.59 461.319 1553.69 465.819 1553.69 470.919C1553.99 471.119 1553.89 472.419 1553.69 474.819ZM1520.19 458.919C1517.99 460.719 1516.69 463.219 1516.19 466.419H1540.49C1539.99 463.319 1538.69 460.819 1536.49 458.919C1534.29 457.019 1531.59 456.119 1528.39 456.119C1525.09 456.119 1522.39 457.119 1520.19 458.919Z" fill="#50505A"/>
<path d="M1601.89 450.819C1605.99 454.419 1607.99 459.919 1607.99 467.319V495.419H1594.59V489.319C1591.89 493.919 1586.89 496.219 1579.59 496.219C1575.79 496.219 1572.49 495.619 1569.69 494.319C1566.89 493.019 1564.79 491.219 1563.29 489.019C1561.79 486.719 1561.09 484.219 1561.09 481.319C1561.09 476.719 1562.79 473.119 1566.29 470.519C1569.79 467.919 1575.09 466.619 1582.29 466.619H1593.69C1593.69 463.519 1592.79 461.119 1590.89 459.419C1588.99 457.719 1586.19 456.919 1582.39 456.919C1579.79 456.919 1577.19 457.319 1574.59 458.119C1572.09 458.919 1569.89 460.019 1568.09 461.419L1562.99 451.419C1565.69 449.519 1568.89 448.019 1572.69 447.019C1576.49 446.019 1580.29 445.419 1584.29 445.419C1591.99 445.319 1597.79 447.119 1601.89 450.819ZM1589.69 484.819C1591.59 483.719 1592.89 482.019 1593.69 479.819V474.819H1583.89C1577.99 474.819 1575.09 476.719 1575.09 480.619C1575.09 482.419 1575.79 483.919 1577.29 485.019C1578.69 486.119 1580.69 486.619 1583.19 486.619C1585.69 486.519 1587.79 485.919 1589.69 484.819Z" fill="#50505A"/>
<path d="M1623.29 427.319H1637.59V495.419H1623.29V427.319Z" fill="#50505A"/>
<path d="M1653.89 436.919C1652.19 435.419 1651.39 433.519 1651.39 431.219C1651.39 428.919 1652.19 427.019 1653.89 425.519C1655.59 424.019 1657.69 423.219 1660.29 423.219C1662.89 423.219 1665.09 423.919 1666.69 425.419C1668.39 426.919 1669.19 428.719 1669.19 430.919C1669.19 433.319 1668.39 435.319 1666.69 436.819C1664.99 438.419 1662.89 439.119 1660.29 439.119C1657.69 439.219 1655.59 438.419 1653.89 436.919ZM1653.19 446.119H1667.49V495.419H1653.19V446.119Z" fill="#50505A"/>
<path d="M1733.39 427.319V495.419H1719.69V489.719C1716.19 494.019 1710.99 496.119 1704.29 496.119C1699.69 496.119 1695.39 495.119 1691.69 493.019C1687.89 490.919 1684.99 488.019 1682.79 484.119C1680.69 480.219 1679.59 475.819 1679.59 470.719C1679.59 465.619 1680.69 461.219 1682.79 457.319C1684.89 453.419 1687.89 450.519 1691.69 448.419C1695.49 446.319 1699.69 445.319 1704.29 445.319C1710.59 445.319 1715.49 447.319 1719.09 451.319V427.419H1733.39V427.319ZM1715.79 480.719C1718.19 478.219 1719.39 474.919 1719.39 470.719C1719.39 466.519 1718.19 463.219 1715.79 460.719C1713.39 458.219 1710.39 457.019 1706.79 457.019C1703.09 457.019 1700.09 458.219 1697.69 460.719C1695.29 463.219 1694.09 466.519 1694.09 470.719C1694.09 474.919 1695.29 478.219 1697.69 480.719C1700.09 483.219 1703.09 484.419 1706.79 484.419C1710.39 484.419 1713.39 483.219 1715.79 480.719Z" fill="#50505A"/>
<path d="M1786.39 450.819C1790.49 454.419 1792.49 459.919 1792.49 467.319V495.419H1779.09V489.319C1776.39 493.919 1771.39 496.219 1764.09 496.219C1760.29 496.219 1756.99 495.619 1754.19 494.319C1751.39 493.019 1749.29 491.219 1747.79 489.019C1746.29 486.719 1745.59 484.219 1745.59 481.319C1745.59 476.719 1747.29 473.119 1750.79 470.519C1754.29 467.919 1759.59 466.619 1766.79 466.619H1778.19C1778.19 463.519 1777.29 461.119 1775.39 459.419C1773.49 457.719 1770.69 456.919 1766.89 456.919C1764.29 456.919 1761.69 457.319 1759.09 458.119C1756.59 458.919 1754.39 460.019 1752.59 461.419L1747.49 451.419C1750.19 449.519 1753.39 448.019 1757.19 447.019C1760.99 446.019 1764.79 445.419 1768.79 445.419C1776.39 445.319 1782.29 447.119 1786.39 450.819ZM1774.19 484.819C1776.09 483.719 1777.39 482.019 1778.19 479.819V474.819H1768.39C1762.49 474.819 1759.59 476.719 1759.59 480.619C1759.59 482.419 1760.29 483.919 1761.79 485.019C1763.19 486.119 1765.19 486.619 1767.69 486.619C1770.09 486.519 1772.29 485.919 1774.19 484.819Z" fill="#50505A"/>
<path d="M1858.59 427.319V495.419H1844.89V489.719C1841.39 494.019 1836.19 496.119 1829.49 496.119C1824.89 496.119 1820.59 495.119 1816.89 493.019C1813.09 490.919 1810.19 488.019 1807.99 484.119C1805.89 480.219 1804.79 475.819 1804.79 470.719C1804.79 465.619 1805.89 461.219 1807.99 457.319C1810.09 453.419 1813.09 450.519 1816.89 448.419C1820.69 446.319 1824.89 445.319 1829.49 445.319C1835.79 445.319 1840.69 447.319 1844.29 451.319V427.419H1858.59V427.319ZM1840.99 480.719C1843.39 478.219 1844.59 474.919 1844.59 470.719C1844.59 466.519 1843.39 463.219 1840.99 460.719C1838.59 458.219 1835.59 457.019 1831.99 457.019C1828.29 457.019 1825.29 458.219 1822.89 460.719C1820.49 463.219 1819.29 466.519 1819.29 470.719C1819.29 474.919 1820.49 478.219 1822.89 480.719C1825.29 483.219 1828.29 484.419 1831.99 484.419C1835.59 484.419 1838.59 483.219 1840.99 480.719Z" fill="#50505A"/>
<path d="M1873.09 493.619C1871.39 491.919 1870.49 489.719 1870.49 487.219C1870.49 484.619 1871.39 482.419 1873.09 480.819C1874.79 479.219 1876.89 478.419 1879.39 478.419C1881.89 478.419 1883.99 479.219 1885.69 480.819C1887.39 482.419 1888.29 484.519 1888.29 487.219C1888.29 489.819 1887.39 491.919 1885.69 493.619C1883.99 495.319 1881.89 496.219 1879.39 496.219C1876.99 496.119 1874.89 495.319 1873.09 493.619Z" fill="#50505A"/>
</svg>
