<?xml version="1.0" encoding="UTF-8"?> <svg xmlns="http://www.w3.org/2000/svg" xmlns:xlink="http://www.w3.org/1999/xlink" xmlns:xodm="http://www.corel.com/coreldraw/odm/2003" xml:space="preserve" width="210mm" height="210mm" version="1.1" style="shape-rendering:geometricPrecision; text-rendering:geometricPrecision; image-rendering:optimizeQuality; fill-rule:evenodd; clip-rule:evenodd" viewBox="0 0 21000 21000"> <defs> <style type="text/css"> .fil0 {fill:#00205B;fill-rule:nonzero} </style> </defs> <g id="Capa_x0020_1"> <metadata id="CorelCorpID_0Corel-Layer"></metadata> <path class="fil0" d="M10503.13 18177.44c-4366.05,0 -7905.38,-3434.55 -7905.38,-7671.26 0,-4236.8 3539.33,-7671.27 7905.38,-7671.27 4366.05,0 7905.38,3434.47 7905.38,7671.27 0,4236.71 -3539.33,7671.26 -7905.38,7671.26zm0 -15562.16c-4491.12,0 -8131.87,3532.78 -8131.87,7890.9 0,4358.04 3640.75,7890.89 8131.87,7890.89 4491.04,0 8131.79,-3532.85 8131.79,-7890.89 0,-4358.12 -3640.75,-7890.9 -8131.79,-7890.9zm-6824.26 9720.42l161.06 -42.4 -53 -189.73 136.43 -35.92 53.07 189.89 280.41 -73.97 41.94 150.15 -714.4 187.9 -100.05 -357.88 136.51 -35.92 58.03 207.88zm-164.34 -1332.7l0.23 1.83 242.58 61.47 -11.44 -157.93 -231.37 94.63zm387.17 100.36l154.35 39.2 11.97 165.4 -757.71 -217.87 -11.06 -152.21 719.35 -313.73 12.05 167.16 -147.1 60.7 18.15 251.35zm-768.01 -236.86l128.5 157.48 -56.28 51.7 -157.17 -131.93 84.95 -77.25zm820.09 -1174.69l3.89 -26.85c2.37,-16.09 4.04,-32.33 5.11,-48.88 1.07,-16.62 -0.68,-31.95 -5.18,-46.13 -4.58,-14.26 -12.43,-26.31 -23.57,-36.38 -11.06,-9.91 -27.99,-16.55 -50.71,-19.6 -23.34,-3.12 -41.79,-1.14 -55.36,6.18 -13.58,7.32 -24.18,17.54 -31.73,30.73 -7.47,13.04 -12.96,28.14 -16.39,44.92 -3.44,17 -6.26,33.48 -8.62,49.49l-3.13 21.35 185.69 25.17zm-308.16 -41.79l2.67 -18.69c4.42,-30.88 2.29,-55.74 -6.56,-74.58 -8.77,-18.91 -30.43,-30.65 -64.74,-35.23 -18.23,-2.59 -33.1,-1.83 -44.92,1.83 -11.74,3.81 -21.35,9.99 -28.9,18.38 -7.55,8.39 -13.27,18.61 -17.31,30.66 -4.12,12.12 -7.09,24.93 -9.08,38.58l-2.28 15.71 171.12 23.34zm-320.67 113.24l24.63 -170.59c5.19,-35.92 12.82,-68.25 22.96,-97.08 10.06,-28.97 24.02,-53.22 41.71,-72.82 17.69,-19.68 40.11,-33.79 67.11,-42.4 26.99,-8.7 60.32,-10.22 99.82,-4.96 29.13,4.04 56.13,13.12 80.84,27.15 24.7,14.11 42.85,34.16 54.29,60.32 7.09,-21.74 17.62,-39.88 31.57,-54.37 14.04,-14.42 30.05,-25.78 48.12,-34.09 18,-8.31 37.75,-13.42 59.18,-15.63 21.51,-2.06 43.24,-1.61 65.28,1.29 36.91,5.11 67.56,15.71 92.04,31.88 24.41,16.39 43.32,36.3 56.82,59.86 13.42,23.57 21.81,50.03 25.16,79.46 3.36,29.44 2.75,59.94 -1.83,91.51l-34.7 240.3 -733 -99.83zm675.66 -1429.17l6.17 -16.7c6.1,-16.47 10.45,-32.48 13.12,-48.27 2.67,-15.56 2.52,-30.2 -0.46,-43.92 -2.97,-13.5 -9.68,-25.86 -20.28,-36.84 -10.53,-10.9 -26.01,-19.98 -46.29,-26.99 -20.36,-7.09 -38.13,-9.46 -53.23,-7.09 -15.1,2.44 -28.14,8 -39.05,16.85 -10.9,8.77 -20.28,20.05 -28.14,33.86 -7.93,13.95 -14.79,28.75 -20.66,44.61l-6.18 16.85 195 67.64zm505.13 -207.34l-64.43 174.48 -335.62 67.41 -0.61 1.75 275.37 95.78 -54.29 147.26 -696.86 -242.2 71.53 -194c12.2,-32.87 27.68,-62.69 46.52,-89.22 18.91,-26.62 41.1,-48.12 66.57,-64.44 25.47,-16.4 54,-26.31 85.57,-29.97 31.57,-3.66 65.88,0.99 102.87,13.88 46.14,16.09 82.74,41.86 109.58,77.4 26.85,35.54 39.51,77.86 38.06,127.05l355.74 -85.18zm435.52 -828.63l-80.53 134.36 -639.89 -361.16 80.53 -134.29 639.89 361.09zm824.05 -1246.53c10.68,54.68 8.24,109.28 -7.32,163.65 -15.55,54.45 -43.62,104.17 -84.34,149.16 -35.16,39.05 -75.5,69.55 -120.95,91.59 -45.45,21.89 -92.5,34.62 -141.23,37.98 -48.73,3.5 -97.91,-2.83 -147.48,-18.69 -49.49,-16.01 -95.94,-42.32 -139.33,-79.15 -41.86,-35.54 -74.2,-76.11 -97.08,-121.48 -22.87,-45.53 -35.91,-92.13 -39.12,-139.63 -3.28,-47.59 3.13,-94.95 18.99,-142 15.86,-47.05 41.41,-89.98 76.57,-129.1 40.26,-44.62 87.16,-77.71 140.62,-99.6 53.53,-21.73 108.97,-31.04 166.24,-28.14l-10.29 160.53c-32.87,-2.06 -64.52,2.28 -94.95,13.34 -30.42,11.14 -57.42,29.9 -81.21,56.2 -20.74,23.03 -35.31,48.05 -43.77,75.35 -8.54,27.3 -11.21,54.68 -8.16,82.05 3.05,27.53 11.59,54.3 25.54,80.15 14.04,26.08 33.1,49.26 57.2,69.7 24.1,20.52 50.4,35.84 78.77,45.68 28.37,10.07 56.82,14.64 85.26,14.03 28.52,-0.76 56.05,-6.94 82.82,-18.76 26.61,-11.82 50.4,-29.13 71.15,-52.16 23.71,-26.31 39.19,-54.83 46.52,-85.64 7.24,-30.65 7.62,-61.77 0.99,-92.96l164.56 -32.1zm604.81 -1021.64l-1.52 1.07 75.57 231.9 131.62 -93.42 -205.67 -139.55zm118.51 371.38l48.04 147.71 -137.95 97.92 -213.37 -738.49 126.97 -90.14 656.66 423.85 -139.47 99.06 -131.32 -88.54 -209.56 148.63zm1226.09 -1166.46c-21.96,-9.23 -41.03,-14.26 -57.35,-15.17 -16.24,-0.92 -32.94,2.36 -49.87,9.76 -8.31,3.66 -16.09,8.54 -23.49,14.41 -7.47,6.18 -13.34,12.81 -17.61,20.29 -4.35,7.55 -6.94,15.48 -8.01,23.86 -0.99,8.55 0.53,17.01 4.57,25.78 9.99,21.35 29.67,34.55 59.11,39.35 29.43,4.96 71.22,6.33 125.29,4.35 22.27,-0.77 45.22,0.3 68.78,3.28 23.64,2.89 46.29,9.3 68.26,19.29 21.88,9.84 42.32,23.56 61.38,41.03 19.07,17.38 35.01,39.96 47.97,67.87 15.02,32.41 22.42,64.51 22.04,96.39 -0.38,31.87 -7.24,61.84 -20.59,89.98 -13.42,28.14 -33.02,53.99 -58.8,77.48 -25.77,23.49 -56.27,42.94 -91.43,58.26 -31.72,13.88 -61.39,22.5 -89.07,25.86 -27.76,3.5 -53.76,3.05 -78.01,-1.38 -24.25,-4.27 -47.21,-11.82 -68.79,-22.72 -21.5,-10.68 -42.32,-23.11 -62.38,-37.37l72.83 -125.9c24.48,19.29 51.09,33.32 79.92,42.32 28.9,8.92 58.03,7.02 87.31,-5.87 27.61,-12.05 46.98,-29.13 58.11,-51.55 11.14,-22.27 11.67,-44.38 1.45,-66.5 -10.22,-21.89 -28.21,-36.6 -53.99,-44.31 -25.77,-7.47 -63.52,-9.38 -113.32,-5.64 -62,4.73 -115.46,-2.82 -160.37,-22.95 -44.99,-19.91 -78.62,-53.99 -100.97,-102.04 -13.73,-29.51 -20.21,-58.56 -19.29,-87.16 0.84,-28.52 7.39,-55.52 19.67,-80.68 12.2,-25.32 29.67,-48.05 52.32,-68.48 22.72,-20.36 48.95,-37.07 78.92,-50.11 35.69,-15.63 74.05,-22.87 114.85,-21.58 40.87,1.38 78.32,9.76 112.41,25.47l-61.85 124.38zm2039.39 -686.18l136.81 -7.93 356.51 422.25 1.91 -0.15 -27 -441.24 159.92 -9.23 43.92 717.07 -136.81 7.85 -355.59 -423.23 -1.91 0.15 27.07 442.22 -160.9 9.23 -43.93 -716.99zm1887.79 262.87l-1.91 -0.31 -117.43 214.9 160.98 25.62 -41.64 -240.21zm-189.88 342.4l-74.89 136.81 -168.53 -26.84 392.96 -665.36 155.34 24.71 148.86 751.45 -170.52 -27.07 -26.99 -152.9 -256.23 -40.8zm1819.15 543.96c-49.64,27.91 -103.48,43.85 -161.51,47.66 -58.04,3.89 -115.69,-5.34 -173.11,-27.61 -49.57,-19.14 -92.66,-45.91 -129.03,-80.22 -36.45,-34.32 -64.52,-73.13 -83.96,-116.68 -19.6,-43.47 -29.82,-90.52 -30.81,-141.15 -0.99,-50.56 9.15,-101.96 30.5,-153.74 20.67,-50.26 49.34,-93.27 85.95,-129.41 36.68,-36 77.55,-63.37 122.7,-82.21 45.14,-18.68 93.18,-28.67 144.2,-29.66 51.02,-1.22 101.35,7.93 150.92,27.14 56.81,21.89 104.63,53.84 143.52,95.63 38.97,41.64 66.5,89.38 82.66,142.68l-159.45 44c-8.77,-30.8 -23.65,-58.33 -44.54,-82.43 -20.9,-24.1 -48.04,-42.78 -81.52,-55.75 -29.28,-11.28 -58.57,-16.24 -87.85,-14.94 -29.28,1.22 -56.74,7.93 -82.44,19.82 -25.7,11.98 -48.88,28.6 -69.39,49.95 -20.67,21.51 -36.91,46.6 -48.81,75.58 -11.82,28.9 -17.92,58.03 -18.22,87.24 -0.31,29.36 4.65,56.81 14.87,82.66 10.14,25.85 25.31,49.03 45.68,69.47 20.28,20.67 45.06,36.45 74.35,47.89 33.48,12.97 66.34,17.62 98.68,14.03 32.25,-3.5 62.53,-13.49 90.74,-29.97l85.87 140.02zm803.01 579.72l-134.67 -84.35 401.19 -603.59 134.68 84.27 -401.2 603.67zm1042.31 331.11c-22.42,22.27 -39.43,46.98 -51.25,73.9 -11.74,27.07 -18,54.37 -18.76,81.98 -0.76,27.68 4.19,54.6 14.95,81.14 10.67,26.46 27.37,50.4 49.95,71.68 22.57,21.28 47.66,36.83 75.26,46.52 27.61,9.61 55.6,13.72 84.04,12.12 28.45,-1.52 56.43,-8.39 83.89,-20.51 27.45,-12.28 52.39,-29.44 74.73,-51.78 22.27,-22.35 39.35,-46.98 51.09,-73.97 11.82,-26.92 18.08,-54.22 18.84,-81.83 0.76,-27.68 -4.27,-54.75 -14.95,-81.21 -10.67,-26.54 -27.3,-50.49 -49.95,-71.76 -22.57,-21.28 -47.66,-36.84 -75.26,-46.45 -27.61,-9.53 -55.67,-13.65 -84.04,-12.2 -28.45,1.53 -56.36,8.39 -83.81,20.67 -27.53,12.12 -52.39,29.36 -74.73,51.7zm-120.42 -113.55c38.74,-38.74 82.21,-68.02 130.25,-87.77 48.05,-19.68 96.62,-29.97 145.73,-30.58 49.04,-0.61 97.39,7.93 144.97,25.85 47.66,17.92 90.6,44.84 128.88,81.06 38.28,36.07 67.26,77.03 87.09,122.63 19.75,45.68 29.89,92.42 30.42,140.32 0.46,47.89 -8.61,95.17 -27.45,142.14 -18.76,46.98 -47.51,89.83 -86.32,128.57 -40.12,40.04 -84.19,69.93 -132.24,89.76 -48.12,19.68 -96.54,29.74 -145.42,30.12 -48.81,0.54 -96.85,-8.54 -143.98,-26.76 -47.13,-18.38 -89.83,-45.61 -128.11,-81.68 -38.36,-36.22 -67.65,-76.94 -87.85,-122.09 -20.21,-45.22 -30.81,-91.43 -31.73,-138.86 -0.99,-47.44 8.01,-94.64 27,-141.92 18.99,-47.13 48.65,-90.67 88.76,-130.79zm1425.89 1009.21l73.67 112.1 -206.82 507.74 1.07 1.52 384.19 -237.55 86.02 131.09 -624.25 386.1 -73.67 -112.25 208.19 -507.35 -0.99 -1.45 -385.03 237.93 -86.63 -131.85 624.25 -386.03zm679.47 1730.09l-0.69 -1.68 -250.66 4.27 54.83 149.01 196.52 -151.6zm-400.67 4.5l-159.61 2.59 -57.42 -156.18 790.27 11.9 52.85 143.82 -605.72 489.97 -58.04 -157.86 124.84 -96.92 -87.17 -237.32zm351.94 1372.13l30.81 212.45 -140.01 18.99 -53.31 -367.18 733 -100.06 22.5 154.89 -592.99 80.91zm517.03 1196.8l-147.02 -6.48 -10.22 215.2 -141.16 -6.33 10.15 -215.12 -168.69 -7.55 -11.06 233.96 -141.15 -6.33 18.3 -389.22 739.41 32.86 -18.31 389.15 -141.23 -6.17 10.98 -233.97zm-250.12 1456.85c20.97,-11.13 36.83,-22.57 47.66,-34.39 10.75,-11.97 18.3,-26.69 22.8,-44.31 2.13,-8.54 3.05,-17.38 2.74,-26.76 -0.38,-9.53 -2.21,-18.15 -5.56,-26.01 -3.43,-7.93 -8.32,-14.79 -14.49,-20.82 -6.26,-5.94 -14.11,-10.06 -23.64,-12.35 -23.57,-5.57 -46.37,1.3 -68.48,20.9 -22.12,19.44 -49.04,50.48 -80.61,93.03 -13.19,17.47 -28.21,34.39 -45.14,50.56 -16.93,16.17 -36.15,29.59 -57.73,40.27 -21.51,10.6 -45.22,17.84 -71.08,21.58 -25.92,3.81 -54.14,2.21 -84.64,-5.11 -35.62,-8.47 -66.2,-22.65 -91.82,-42.55 -25.62,-20.06 -45.75,-43.7 -60.32,-71.38 -14.64,-27.53 -23.49,-58.42 -26.61,-92.58 -3.21,-34.24 -0.16,-69.4 9,-105.77 8.31,-32.72 19.59,-60.86 33.93,-84.04 14.26,-23.33 30.66,-42.86 49.19,-58.72 18.45,-15.86 38.66,-28.75 60.78,-38.51 22.03,-9.99 44.99,-18.07 68.86,-24.71l57.34 133.23c-30.73,6.86 -58.64,18.53 -83.65,35.08 -25.09,16.54 -41.49,40.03 -49.11,70.31 -7.25,28.44 -5.19,53.76 6.02,76.18 11.21,22.19 28.83,36.22 53,42.02 24.18,5.72 47.28,1.07 69.24,-13.88 21.97,-15.1 46.83,-42.78 74.59,-82.97 34.24,-50.41 73.43,-86.63 117.36,-108.67 44,-21.89 92.35,-26.61 145.12,-14.03 32.41,7.7 59.94,20.66 82.59,38.89 22.72,18.3 40.49,39.88 53.46,64.82 12.88,24.86 20.59,52.24 23.1,82.13 2.59,29.9 -0.07,60.32 -7.85,91.21 -9.31,36.98 -27.15,70.69 -53.38,101.12 -26.16,30.35 -56.21,53.68 -89.91,70.15l-62.76 -123.92zm-12318.79 2404.98l19.75 24.4c46.59,57.27 97.46,89 152.75,94.87 55.13,5.8 111.56,-13.27 169.06,-57.19 59.1,-45.23 91.51,-94.72 97.16,-148.25 5.64,-53.61 -14.27,-108.44 -59.64,-164.26l-19.75 -24.18 -359.33 274.61zm371.23 -481.65l141.61 174.33c32.18,39.73 54.45,81.9 66.57,126.59 12.2,44.76 15.18,89.45 8.85,134.06 -6.33,44.46 -21.66,87.24 -45.99,128.12 -24.32,40.79 -57.04,77.02 -98.14,108.44 -41.1,31.42 -84.95,53.61 -131.47,66.49 -46.6,12.97 -92.81,17.09 -138.72,12.43 -45.83,-4.57 -89.91,-17.99 -132.08,-40.18 -42.17,-22.2 -79,-52.78 -110.42,-91.51l-141.54 -174.33 581.33 -444.44zm959.33 1201.23l-94.86 109.43 169.9 138.56 -91.05 105.09 -169.83 -138.72 -108.75 125.37 184.7 150.77 -91.05 105.01 -307.25 -250.82 476.55 -549.67 307.24 250.81 -91.05 104.93 -184.55 -150.76zm2182.69 1677.16c-48.51,29.9 -101.66,47.67 -159.46,53.69 -57.88,5.95 -115.92,-1.07 -174.1,-21.05 -50.26,-17.38 -94.33,-42.63 -132.08,-75.49 -37.83,-32.87 -67.34,-70.7 -88.54,-113.48 -21.27,-42.63 -33.32,-89.37 -36.37,-139.86 -2.9,-50.63 5.18,-102.26 24.55,-154.88 18.61,-50.79 45.53,-94.94 80.76,-132.31 35.16,-37.36 74.96,-66.42 119.35,-86.7 44.3,-20.44 91.96,-32.19 142.9,-35.16 51.02,-3.05 101.58,4.27 151.91,21.58 57.65,19.91 106.69,49.95 147.18,90.14 40.57,40.42 70.01,86.86 88.23,139.71l-157.55 49.79c-10.06,-30.42 -26,-57.34 -47.81,-80.68 -21.81,-23.49 -49.72,-41.03 -83.66,-52.62 -29.74,-10.22 -59.17,-14.26 -88.38,-11.89 -29.21,2.36 -56.43,10.06 -81.6,23.03 -25.24,12.81 -47.74,30.35 -67.41,52.54 -19.75,22.11 -35,47.89 -45.68,77.17 -10.83,29.36 -15.71,58.57 -14.87,87.93 0.91,29.36 6.94,56.66 18.07,82.05 11.21,25.4 27.3,48.05 48.43,67.8 21.12,19.83 46.51,34.7 76.26,44.91 33.85,11.83 66.95,15.18 99.06,10.45 32.1,-4.65 61.99,-15.71 89.52,-33.25l91.29 136.58zm1106.51 -248.14l-19.29 141.69 220.08 28.36 -18.61 135.9 -220 -28.29 -22.19 162.43 239.14 30.81 -18.53 136.04 -397.99 -51.24 97.15 -712.03 398.07 51.17 -18.6 136.04 -239.23 -30.88zm1246 239.37l18.22 -1.06c18,-1.15 34.93,-3.59 50.79,-7.55 15.86,-3.82 29.67,-9.76 41.41,-17.7 11.67,-8.08 20.59,-18.91 26.84,-32.71 6.18,-13.8 8.54,-31.04 7.25,-52.01 -1.38,-20.89 -6.18,-37.6 -14.42,-50.25 -8.23,-12.51 -18.76,-21.81 -31.34,-28.14 -12.66,-6.1 -27.15,-9.99 -43.31,-11.6 -16.25,-1.44 -33.02,-1.83 -50.41,-0.61l-18.23 1.07 13.2 200.56zm396.47 367.88l-190.8 11.74 -196.75 -272.24 -1.91 0.07 18.61 283.3 -160.83 9.99 -47.05 -716.83 211.85 -13.12c35.99,-2.28 70.23,-0.15 102.94,6.03 32.64,6.33 61.7,17.54 87.32,33.86 25.55,16.16 46.29,37.59 62.23,64.28 15.94,26.77 25.16,59.03 27.68,97.16 3.13,47.51 -6.86,90.21 -29.82,128.34 -22.95,37.9 -58.03,66.04 -105.16,84.27l221.69 283.15zm939.89 -666.74c49.34,66.58 99.06,133.38 149.16,200.18l1.83 -0.45 31.27 -491.34 167.23 -45.6 -78.62 767.54 -113.32 30.81c-80.3,-104.17 -159.31,-206.74 -237.01,-308.01 -77.79,-101.04 -156.49,-204.22 -236.33,-309l166.32 -45.37c50.25,67.49 100.13,134.44 149.47,201.24zm1256.74 -573.16l68.1 126.75 196.83 -99.6 65.35 121.71 -196.9 99.52 78.01 145.35 213.99 -108.29 65.35 121.71 -356.05 179.97 -342.02 -636.99 355.97 -179.97 65.36 121.71 -213.99 108.13zm1597.93 -515.28l88.85 106.61 -433.16 339.73 -112.86 -658.57 -222.22 174.18 -88.84 -106.69 410.58 -321.89 114.46 657.28 243.19 -190.65zm532.14 -1086.46l-1.22 1.53 134.75 205.13 102.34 -123.16 -235.87 -83.5zm213.22 329.29l85.56 130.78 -107.14 128.95 -402.42 -660.09 98.75 -118.81 747.04 245.24 -108.44 130.48 -150.39 -52.62 -162.96 196.07zm-5299.84 -9752.99c-3037.7,0 -5509.02,2398.27 -5509.02,5345.91 0,2947.71 2471.32,5345.75 5509.02,5345.75 3037.69,0 5509.02,-2398.04 5509.02,-5345.75 0,-2947.64 -2471.33,-5345.91 -5509.02,-5345.91zm0 10896.64c-3154.15,0 -5720.18,-2490 -5720.18,-5550.73 0,-3060.73 2566.03,-5550.74 5720.18,-5550.74 3154.07,0 5720.18,2490.01 5720.18,5550.74 0,3060.73 -2566.11,5550.73 -5720.18,5550.73zm-2128.47 -2499.08c-1.29,-68.71 -5.11,-104.25 -31.57,-129.94 -31.57,-28.22 -85.86,-25.78 -123.77,-25.78l-56.81 0 0 670.32 73.21 0c27.84,0 60.63,0 88.38,-13.65 18.99,-9.77 35.39,-23.19 44.23,-64.82 6.33,-33.1 7.55,-123.85 7.55,-223.06 0,-71.08 1.22,-142.07 -1.22,-213.07zm108.52 325.85c0,31.88 -1.22,63.76 -3.74,95.56 -6.33,68.63 -27.75,131.09 -93.49,165.33 -53,27.07 -112.33,23.33 -167.85,23.33l-166.7 0 0 -865 167.92 0c54.3,0 108.6,-2.44 160.38,19.67 83.35,35.54 95.93,112.64 99.74,139.71 5.04,36.6 6.26,127.35 6.26,229.08 0,63.75 -1.22,128.57 -2.52,192.32zm127.51 284.22l0 -865 392.58 0 0 96.77 -281.55 0 0 257.3 246.16 0 0 98.07 -246.16 0 0 316.09 290.39 0 0 96.77 -401.42 0zm831.9 -24.48c-55.59,36.68 -117.43,36.68 -138.86,36.68 -31.57,0 -159.16,-2.44 -200.79,-118.73 -11.37,-31.88 -13.88,-63.68 -13.88,-96.85l0 -95.55 104.78 0 0 42.93c0,58.72 0,85.79 10.06,113.93 8.85,23.18 35.39,62.38 99.83,62.38 42.85,0 84.57,-18.38 102.26,-56.28 10.07,-20.82 10.07,-42.93 10.07,-51.4 0,-73.59 -34.09,-104.17 -83.36,-153.28l-119.95 -120.03c-69.4,-69.78 -102.26,-116.37 -102.26,-216.8 0,-12.36 0,-46.6 10.14,-82.06 17.69,-56.35 66.88,-118.96 196.9,-118.96 30.35,0 150.31,1.3 180.58,112.71 7.63,29.44 7.63,69.93 7.63,100.51l0 55.13 -98.53 0c-1.22,-53.91 -1.22,-40.49 -1.22,-70.99 0,-39.28 -6.33,-77.18 -48.04,-96.85 -20.21,-8.62 -39.12,-8.62 -46.75,-8.62 -26.46,0 -49.19,6.18 -66.88,23.34 -10.07,8.54 -15.17,19.59 -17.69,23.26 -5.03,10.98 -8.85,29.35 -8.85,57.57 0,7.32 0,29.44 7.63,50.26 13.88,40.49 51.78,73.43 80.83,104.16l140.09 144.52c10.14,11.05 18.99,22.03 27.84,33.09 21.42,27 49.18,72.37 49.18,154.43 0,102.87 -42.93,146.87 -80.76,171.5zm506.21 -585.59c-1.3,-68.71 -5.11,-104.25 -31.57,-129.94 -31.57,-28.22 -85.87,-25.78 -123.77,-25.78l-56.81 0 0 670.32 73.28 0c27.76,0 60.55,0 88.31,-13.65 18.99,-9.77 35.39,-23.19 44.23,-64.82 6.33,-33.1 7.63,-123.85 7.63,-223.06 0,-71.08 1.22,-142.07 -1.3,-213.07zm108.52 325.85c0,31.88 -1.22,63.76 -3.74,95.56 -6.33,68.63 -27.76,131.09 -93.42,165.33 -53.07,27.07 -112.4,23.33 -167.92,23.33l-166.62 0 0 -865 167.84 0c54.3,0 108.67,-2.44 160.37,19.67 83.35,35.54 96.01,112.64 99.75,139.71 5.03,36.6 6.33,127.35 6.33,229.08 0,63.75 -1.3,128.57 -2.59,192.32zm127.5 284.22l0 -865 392.66 0 0 96.77 -281.63 0 0 257.3 246.24 0 0 98.07 -246.24 0 0 316.09 290.48 0 0 96.77 -401.51 0zm908.86 0l0 -678.78 -147.72 0 0 -82.05c20.21,0 40.42,0 59.33,-2.44 66.96,-6.1 104.78,-33.1 106.08,-101.73l93.41 0 0 865 -111.1 0zm603.43 -735.06c-5.03,-20.82 -22.72,-56.35 -78.24,-55.21 -7.55,0 -34.09,0 -54.3,16.01 -25.24,20.75 -31.57,61.24 -31.57,126.21 0,18.23 0,36.68 1.22,55.06 1.3,23.34 3.82,41.64 18.99,60.02 11.36,13.42 28.98,27.07 68.18,27.07 51.78,0 69.47,-35.61 74.5,-53.99 3.82,-15.94 5.04,-52.62 6.33,-96.77 0,-1.3 2.44,-52.7 -5.11,-78.4zm6.33 432.47c0,-19.68 -1.22,-100.51 -87.09,-99.22 -40.41,0 -59.33,17.16 -68.17,30.58 -20.21,28.14 -16.4,57.58 -17.69,89.45 0,18.38 -1.3,36.76 -1.3,55.06 0,14.72 1.3,29.44 1.3,44.16 1.29,23.18 1.29,96.85 85.86,96.85 18.92,0 64.37,-3.74 80.76,-53.99 6.33,-20.75 7.55,-55.14 7.55,-104.17 0,-19.53 0,-39.2 -1.22,-58.72zm98.45 185c-13.8,55.06 -40.34,88.16 -94.64,110.27 -42.93,17.08 -79.53,18.38 -95.93,18.38 -17.69,0 -63.14,-1.3 -108.59,-25.78 -53.08,-29.43 -82.06,-75.95 -82.06,-189.96 0,-110.27 -2.59,-173.87 35.31,-218.02 24.02,-28.22 55.59,-35.54 66.96,-37.98 -2.52,0 -21.51,-3.66 -32.87,-8.62 -21.43,-9.76 -46.67,-34.24 -54.3,-86.85 -3.73,-25.78 -5.03,-56.36 -5.03,-111.57 0,-69.78 10.14,-143.37 77.02,-182.57 34.09,-20.81 73.21,-25.62 111.11,-25.62 83.35,0 132.54,31.73 153.97,60.02 30.35,37.9 34.16,93.11 34.16,137.11 0,37.98 0,74.73 -5.11,112.79 -1.22,14.64 -5.03,75.88 -63.06,97.91 -11.37,5.04 -16.4,5.04 -27.76,7.4 12.58,2.44 39.12,8.62 63.14,33.17 31.5,31.8 39.04,72.15 39.04,155.5 0,80.83 0,112.63 -11.36,154.42zm381.3 -257.3c-1.3,-22.11 -2.52,-47.81 -15.18,-66.11 -15.17,-24.64 -45.45,-34.4 -73.21,-34.4 -15.17,0 -58.11,3.66 -74.58,46.6 -9.99,28.14 -11.28,79.69 -11.28,148.17l0 85.79c0,2.52 0,47.81 13.87,73.59 20.21,36.76 64.37,37.9 75.81,37.9 46.67,0 65.58,-24.48 73.2,-41.56 11.37,-24.56 12.59,-80.91 12.59,-149.47 0,-33.17 0,-66.27 -1.22,-100.51zm106 204.68c-3.74,51.32 -8.85,95.48 -47.97,131.01 -54.22,51.4 -126.21,50.26 -147.71,50.26 -21.43,0 -84.57,0 -131.32,-40.49 -58.03,-50.26 -58.03,-113.94 -58.03,-247.54l0 -379.69c0,-121.33 34.01,-172.81 93.41,-201.02 30.28,-13.42 63.07,-18.23 95.94,-18.23 94.71,0 141.38,37.9 162.89,73.44 29.05,45.3 26.46,93.11 25.24,143.37l-103.56 -1.22c0,-44.16 1.29,-67.42 -8.85,-87.09 -8.77,-14.57 -31.57,-32.95 -73.21,-32.95 -82.05,0 -85.79,69.7 -87.08,93.12 -2.52,39.04 -1.3,78.39 -1.3,117.59l0 66.11c18.99,-22.11 51.78,-62.45 123.77,-62.45 10.06,0 35.38,1.14 61.84,12.12 37.9,14.8 70.69,45.38 84.57,83.43 12.66,36.68 15.18,97.92 15.18,185 0,37.91 -1.22,75.96 -3.81,115.23zm374.96 -204.68c-1.29,-22.11 -2.59,-47.81 -15.17,-66.11 -15.18,-24.64 -45.45,-34.4 -73.29,-34.4 -15.1,0 -58.03,3.66 -74.5,46.6 -10.07,28.14 -11.29,79.69 -11.29,148.17l0 85.79c0,2.52 0,47.81 13.88,73.59 20.13,36.76 64.36,37.9 75.8,37.9 46.67,0 65.58,-24.48 73.21,-41.56 11.36,-24.56 12.58,-80.91 12.58,-149.47 0,-33.17 0,-66.27 -1.22,-100.51zm106 204.68c-3.74,51.32 -8.84,95.48 -47.97,131.01 -54.29,51.4 -126.28,50.26 -147.71,50.26 -21.43,0 -84.57,0 -131.32,-40.49 -58.03,-50.26 -58.03,-113.94 -58.03,-247.54l0 -379.69c0,-121.33 34.01,-172.81 93.42,-201.02 30.27,-13.42 63.06,-18.23 95.93,-18.23 94.71,0 141.39,37.9 162.89,73.44 29.05,45.3 26.46,93.11 25.24,143.37l-103.56 -1.22c0,-44.16 1.3,-67.42 -8.84,-87.09 -8.77,-14.57 -31.58,-32.95 -73.21,-32.95 -82.06,0 -85.87,69.7 -87.09,93.12 -2.52,39.04 -1.3,78.39 -1.3,117.59l0 66.11c18.99,-22.11 51.78,-62.45 123.77,-62.45 10.07,0 35.31,1.14 61.85,12.12 37.9,14.8 70.69,45.38 84.57,83.43 12.58,36.68 15.17,97.92 15.17,185 0,37.91 -1.29,75.96 -3.81,115.23zm-2411.84 763.05l-149.16 -35.77 150.08 192.4 -0.92 -156.63zm-1340.4 24.17c-65.13,0 -110.65,-58.11 -110.65,-141.31 0,-25.62 11.51,-50.25 33.32,-71.22 46.14,-44.38 133.15,-68.41 237.85,-66.88 159.69,2.9 1136.49,241.66 1178.89,252.04l1.3 22.11c-10.3,-2.52 -1023.4,-249.98 -1180.64,-252.87 -97.69,-1.38 -180.74,20.89 -222.15,60.85 -17.54,16.93 -26.76,36.3 -26.76,55.97 0,59.79 27.45,119.88 88.84,119.88 39.65,0 80.6,-18.07 99.59,-43.85 12.58,-17.08 15.25,-36.52 8.09,-57.72l20.66 -6.79c9.38,27.68 5.57,54.3 -11.13,76.95 -26.77,36.45 -78.09,52.84 -117.21,52.84zm1394.47 -37.67l149.08 -35.92 -150.07 192.4 0.99 -156.48zm1340.33 24.1c65.2,0 110.72,-58.11 110.72,-141.23 0,-25.7 -11.59,-50.33 -33.32,-71.23 -46.22,-44.53 -133.15,-68.48 -237.85,-66.88 -159.69,2.9 -1136.57,241.67 -1178.97,252.04l-1.29 22.04c10.37,-2.44 1023.39,-249.9 1180.64,-252.73 97.69,-1.44 180.73,20.82 222.22,60.78 17.54,16.78 26.76,36.15 26.76,55.98 0,59.63 -27.45,119.88 -88.91,119.88 -39.58,0 -80.61,-18 -99.6,-43.85 -12.58,-17.08 -15.25,-36.53 -8.08,-57.73l-20.59 -6.79c-9.46,27.68 -5.57,54.37 11.06,77.02 26.76,36.38 78.16,52.7 117.21,52.7zm-600.77 -22.65c35.92,0 61,32.1 61,77.86 0,14.26 -6.32,27.76 -18.37,39.35 -25.47,24.55 -73.44,37.75 -131.17,36.83 -88.08,-1.52 -626.77,-133.3 -650.18,-138.94l-0.69 -12.13c5.72,1.38 564.39,137.73 651.1,139.41 53.91,0.76 99.67,-11.52 122.55,-33.64 9.68,-9.22 14.79,-19.9 14.79,-30.88 0,-32.87 -15.17,-65.96 -49.03,-65.96 -21.89,0 -44.54,9.83 -54.99,24.02 -6.86,9.53 -8.38,20.21 -4.42,31.87l-11.36 3.74c-5.19,-15.25 -3.13,-29.82 6.1,-42.48 14.79,-19.98 43.09,-29.05 64.67,-29.05zm-1535.48 9.68c-35.91,0 -61,32.11 -61,77.86 0,14.19 6.33,27.76 18.38,39.28 25.47,24.48 73.36,37.75 131.16,36.91 88.08,-1.6 626.77,-133.3 650.18,-138.95l0.69 -12.27c-5.72,1.52 -564.39,137.87 -651.1,139.55 -53.91,0.76 -99.67,-11.52 -122.55,-33.63 -9.68,-9.23 -14.79,-19.9 -14.79,-30.89 0,-32.86 15.18,-66.04 49.03,-66.04 21.89,0 44.46,9.84 54.91,24.1 6.94,9.53 8.47,20.21 4.5,31.88l11.36 3.74c5.19,-15.33 3.13,-29.97 -6.1,-42.48 -14.79,-20.06 -43.16,-29.06 -64.67,-29.06zm7200.45 -1206.49c0,97.38 -81.37,176.24 -181.65,176.24 -100.36,0 -181.73,-78.86 -181.73,-176.24 0,-97.38 81.37,-176.23 181.73,-176.23 100.28,0 181.65,78.85 181.65,176.23zm-12196.4 0c0,97.38 -81.29,176.24 -181.64,176.24 -100.36,0 -181.73,-78.86 -181.73,-176.24 0,-97.38 81.37,-176.23 181.73,-176.23 100.35,0 181.64,78.85 181.64,176.23zm1479.66 -4188.21l2610.8 0 0 801.17 -1706.37 0 0 560.81 910.83 0 0 758.7 -910.83 0 0 1178.28 -904.43 0 0 -3298.96zm2899.13 3.27l803.08 0 1277.95 1819.09 0 -1822.06 851.89 0 0 3302.32 -754.28 0 -1326.67 -1882.07 0 1875.59 -851.97 0 0 -3292.87zm3200.51 1651.47l0 -9.08c0,-924.25 703.72,-1649.25 1653.9,-1649.25 640.96,0 1053.29,271.79 1331.18,661.47l-654.38 511.93c-179.28,-226.49 -385.41,-371.38 -685.72,-371.38 -439.25,0 -748.56,375.95 -748.56,838.08l0 9.15c0,475.63 309.31,847.24 748.56,847.24 327.15,0 519.94,-154.04 708.14,-385.18l654.38 471.28c-295.81,412.33 -694.72,715.84 -1389.44,715.84 -896.42,0 -1618.06,-693.19 -1618.06,-1640.1zm-3745.68 -2448.22l-2088.89 0c-20.82,46.9 -40.64,94.03 -59.63,141.77l2269.01 0c-49.5,-40.04 -89.99,-87.93 -120.49,-141.77zm-117.98 -2014.23l1220.68 -5.33c0.61,-1.38 1.6,-2.67 2.29,-4.12l-1214.43 5.34c-2.89,1.45 -5.71,2.74 -8.54,4.11zm921.97 256.92l278.5 -1.3 0 -12.43 -284.14 1.3c2.06,4.04 3.81,8.24 5.64,12.43zm-1378.68 5.95l955.52 -4.19c1.76,-4.28 3.59,-8.39 5.57,-12.44l-941.72 4.05c-6.41,4.11 -12.97,8.23 -19.37,12.58zm1085.47 -522.45l945.68 -4.12c0.92,-1.22 1.61,-2.59 2.6,-3.66l-936.46 4.04c-3.97,1.15 -7.86,2.44 -11.82,3.74zm4094.64 487.6l-1015.46 4.42c2.44,3.97 4.58,8.16 6.71,12.43l1028.28 -4.42c-6.49,-4.2 -13.04,-8.31 -19.53,-12.43zm1622.49 1919.97c-18,-44.92 -36.99,-89.53 -56.59,-133.76l-2187.56 0c-30.5,53.84 -71,101.73 -120.49,141.77l2372.11 0 -7.47 -8.01zm-2070.66 -2170.48l-1301.21 5.57c0.77,1.37 1.61,2.66 2.37,4.11l1307.38 -5.64c-2.82,-1.37 -5.72,-2.67 -8.54,-4.04zm-1274.51 270.34l301.68 -1.3c2.05,-4.19 4.04,-8.39 6.32,-12.43l-308 1.3 0 12.43zm640.11 -524.13l-1019.2 4.35c0.99,1.22 1.83,2.59 2.82,3.66l1028.2 -4.43c-3.96,-1.14 -7.85,-2.36 -11.82,-3.58zm-3589.43 1319.96l-1407.36 6.03c-11.97,13.88 -24.09,27.45 -35.84,41.48l1443.2 -6.25 0 -41.26zm4116.99 -279.26l1232.12 -5.18c-9.92,-9.61 -19.53,-19.37 -29.52,-28.9l-1202.6 5.26 0 28.82zm-38.89 -260.65l974.21 -4.19c-8.7,-6.87 -17.62,-13.65 -26.39,-20.44l-965.21 4.04c5.95,6.71 12.28,13.19 17.39,20.59zm38.89 880.56l1760.74 -7.55c-19.29,-27.68 -38.74,-55.21 -58.72,-82.43l-1702.02 7.32 0 82.66zm0 -317.08l1517.1 -6.56c-11.82,-13.96 -24.1,-27.53 -36.15,-41.26l-1480.95 6.41 0 41.41zm-4116.99 252.26l-1625.99 7.02c-19.68,27.3 -38.89,54.98 -57.88,82.89l1683.87 -7.32 0 -82.59zm0 -566.22l-1131.6 4.96c-9.99,9.45 -19.53,19.44 -29.36,29.05l1160.96 -5.03 0 -28.98zm41.64 -252.72l-882.01 3.74c-8.69,7.01 -17.54,13.8 -26.16,20.81l895.74 -3.81c3.96,-7.02 7.7,-14.18 12.43,-20.74zm4075.35 1239.21l1980.98 -8.39c-22.8,-41.79 -46.59,-82.97 -70.92,-123.85l-1910.06 8.24 0 124zm-4116.99 16.16l0 -122.32 -1831.05 7.86c-24.02,41.03 -47.43,82.51 -69.85,124.38l1901.05 -8.24c0,-0.53 -0.15,-1.14 -0.15,-1.68zm1773.86 -1267.04l0 -599.85c0,-30.58 -22.5,-44 -48.58,-44 -22.95,0 -41.71,19.82 -41.71,44l0 544.64 90.29 55.21zm550.67 0.08l90.29 -55.29 0 -544.64c0,-59.03 -90.29,-59.03 -90.29,0l0 599.93zm185.69 498.96c142.98,-87.47 225.04,-237.55 225.04,-412.26l0 -192.32 0 -289.25c0,-59.1 -90.29,-59.1 -90.29,0l0 216.04c0,81.67 -38.29,151.76 -105.24,192.71l-220.69 134.82c-142.91,87.47 -224.74,237.47 -224.74,412.18l0 192.25 415.92 -254.17zm-1056.8 -677.79c0,81.67 38.28,151.91 105.09,192.71l220.61 134.82c143.06,87.47 224.89,237.47 224.89,412.18l0 192.25 -415.99 -254.17c-142.99,-87.47 -224.89,-237.55 -224.89,-412.26l0 -192.32 0 -289.25c0,-59.1 90.29,-59.1 90.29,0l0 216.04zm134.6 1272.76l415.99 254.1 0 -192.1c0,-174.79 -81.83,-324.86 -224.89,-412.18l-415.99 -254.4 0 192.25c0,174.86 81.9,324.86 224.89,412.33zm922.2 0c142.98,-87.47 225.04,-237.47 225.04,-412.33l0 -192.25 -416.22 254.4c-142.91,87.32 -224.74,237.39 -224.74,412.18l0 192.1 415.92 -254.1zm-922.2 604.58l415.99 254.1 0 -192.18c0,-174.78 -81.83,-324.86 -224.89,-412.1l-415.99 -254.4 0 192.17c0,174.87 81.9,324.94 224.89,412.41zm922.2 0c142.98,-87.47 225.04,-237.54 225.04,-412.41l0 -192.17 -416.22 254.4c-142.91,87.24 -224.74,237.32 -224.74,412.1l0 192.18 415.92 -254.1zm-415.92 -1557.82l0 -961.01c0,-58.87 -90.29,-58.87 -90.29,0l0 960.94 45.15 27.45 45.14 -27.38zm1178.81 264.62l0 -401.88c0,-20.51 -15.1,-29.59 -32.56,-29.59 -15.41,0 -27.99,13.27 -27.99,29.59l0 364.97 60.55 36.91zm368.94 0.08l60.47 -36.99 0 -364.97c0,-39.5 -60.47,-39.5 -60.47,0l0 401.96zm124.38 334.24c95.78,-58.49 150.76,-159.15 150.76,-276.13l0 -128.8 0 -193.93c0,-39.65 -60.47,-39.65 -60.47,0l0 144.74c0,54.83 -25.7,101.81 -70.46,129.11l-147.95 90.36c-95.7,58.57 -150.53,159.16 -150.53,276.21l0 128.73 278.65 -170.29zm-707.99 -454.12c0,54.83 25.62,101.81 70.39,129.11l147.79 90.36c95.86,58.57 150.69,159.16 150.69,276.21l0 128.73 -278.73 -170.29c-95.78,-58.49 -150.69,-159.15 -150.69,-276.13l0 -128.8 0 -193.93c0,-39.65 60.55,-39.65 60.55,0l0 144.74zm90.14 852.73l278.73 170.21 0 -128.65c0,-117.13 -54.83,-217.72 -150.69,-276.21l-278.73 -170.36 0 128.72c0,117.14 54.91,217.72 150.69,276.29zm617.85 0c95.78,-58.57 150.76,-159.15 150.76,-276.29l0 -128.72 -278.88 170.36c-95.7,58.49 -150.53,159.08 -150.53,276.21l0 128.65 278.65 -170.21zm-617.85 405.01l278.73 170.21 0 -128.65c0,-117.13 -54.83,-217.72 -150.69,-276.13l-278.73 -170.44 0 128.72c0,117.14 54.91,217.72 150.69,276.29zm617.85 0c95.78,-58.57 150.76,-159.15 150.76,-276.29l0 -128.72 -278.88 170.44c-95.7,58.41 -150.53,159 -150.53,276.13l0 128.65 278.65 -170.21zm-278.65 -1043.68l0 -643.85c0,-39.43 -60.47,-39.43 -60.47,0l0 643.77 30.19 18.46 30.28 -18.38zm-3012.84 -94.26l0 -401.88c0,-20.51 -15.1,-29.59 -32.48,-29.59 -15.41,0 -27.99,13.27 -27.99,29.59l0 364.97 60.47 36.91zm368.94 0.08l60.48 -36.99 0 -364.97c0,-39.5 -60.48,-39.5 -60.48,0l0 401.96zm124.38 334.24c95.86,-58.49 150.77,-159.15 150.77,-276.13l0 -128.8 0 -193.93c0,-39.65 -60.48,-39.65 -60.48,0l0 144.74c0,54.83 -25.62,101.81 -70.46,129.11l-147.87 90.36c-95.78,58.57 -150.61,159.16 -150.61,276.21l0 128.73 278.65 -170.29zm-707.99 -454.12c0,54.83 25.63,101.81 70.39,129.11l147.79 90.36c95.86,58.57 150.69,159.16 150.69,276.21l0 128.73 -278.65 -170.29c-95.86,-58.49 -150.69,-159.15 -150.69,-276.13l0 -128.8 0 -193.93c0,-39.65 60.47,-39.65 60.47,0l0 144.74zm90.14 852.73l278.73 170.21 0 -128.65c0,-117.13 -54.83,-217.72 -150.69,-276.21l-278.65 -170.36 0 128.72c0,117.14 54.83,217.72 150.61,276.29zm617.85 0c95.86,-58.57 150.77,-159.15 150.77,-276.29l0 -128.72 -278.81 170.36c-95.78,58.49 -150.61,159.08 -150.61,276.21l0 128.65 278.65 -170.21zm-617.85 405.01l278.73 170.21 0 -128.65c0,-117.13 -54.83,-217.72 -150.69,-276.13l-278.65 -170.44 0 128.72c0,117.14 54.83,217.72 150.61,276.29zm617.85 0c95.86,-58.57 150.77,-159.15 150.77,-276.29l0 -128.72 -278.81 170.44c-95.78,58.41 -150.61,159 -150.61,276.13l0 128.65 278.65 -170.21zm-278.65 -1043.68l0 -643.85c0,-39.43 -60.47,-39.43 -60.47,0l0 643.77 30.27 18.46 30.2 -18.38zm7882.5 7771.24l456.26 345c32.26,-20.67 64.44,-41.41 96.39,-62.31l-485.77 -367.41c-22.04,28.52 -44.46,56.58 -66.88,84.72zm-2264.66 1955.2l429.8 715.92c30.04,-20.97 59.1,-43.16 87.62,-65.96l-423.54 -705.47c-31.19,18.76 -62.38,37.29 -93.88,55.51zm2521.05 -2296l602.59 406.46c29.82,-23.11 58.8,-46.82 87.32,-71.07l-627.92 -423.47c-20.43,29.59 -41.18,58.72 -61.99,88.08zm455.03 -718.59l732.55 387.02c12.96,-33.71 24.93,-67.87 35.84,-102.65l-717.07 -378.78c-17,31.5 -33.85,63.22 -51.32,94.41zm-217.64 365.13l713.94 427.66c22.95,-27.99 44.76,-56.58 65.58,-86.1l-722.86 -432.92c-18.76,30.58 -37.52,61.08 -56.66,91.36zm-2390.26 2422.44l417.82 616.1c24.71,-28.3 48.89,-57.35 72.68,-86.79l-400.13 -590.09c-30.05,20.29 -60.02,40.95 -90.37,60.78zm1329.5 -1088.14l245.63 231.37c27.99,-23.03 56.51,-45.52 85.64,-67.87l-256.08 -241.36c-24.94,26.01 -49.8,52.16 -75.19,77.86zm144.36 -10762.5l273.46 -249.44c-29.89,-21.58 -59.48,-43.39 -88.54,-65.58l-259.81 236.93c25.01,26.01 50.25,51.78 74.89,78.09zm148.01 10449.69l325.78 275.29c31.42,-20.51 63.07,-40.87 94.87,-61.16l-349.65 -295.5c-23.56,27.22 -47.13,54.45 -71,81.37zm-927.15 890.55l288.49 338.51c21.2,-30.96 42.55,-61.61 63.98,-92.12l-268.59 -315.25c-27.68,23.33 -55.89,46.06 -83.88,68.86zm-340.27 264.08l360.02 472.73c21.58,-31.42 43.16,-63.06 64.52,-94.71l-337.3 -442.91c-28.98,21.88 -58.03,43.39 -87.24,64.89zm665.59 -544.94l237.93 250.28c23.41,-28.06 47.13,-55.52 71.38,-82.28l-229.62 -241.44c-26.39,24.71 -53,49.19 -79.69,73.44zm1784.46 -2372.49l651.55 300.76c5.49,-36.91 10.53,-73.89 14.87,-111.18l-619.9 -286.28c-15.26,32.41 -30.74,64.52 -46.52,96.7zm-5600.91 4326.85l75.57 360.33c34.47,-14.11 69.01,-27.84 103.63,-40.73l-71.91 -342.7c-35.61,8 -71.53,15.55 -107.29,23.1zm425.37 -102.11l86.55 321.97c35.62,-7.86 71.61,-15.03 107.83,-21.51l-88.61 -329.67c-35.23,9.99 -70.39,19.68 -105.77,29.21zm5351.24 -4610.61l521.3 207.8c2.29,-37.59 4.35,-75.11 6.56,-112.78l-486.22 -193.78c-13.5,33.17 -27.69,65.89 -41.64,98.76zm-4880.04 -10458.46c34.62,11.52 69.17,23.41 103.64,35.46l146.26 -419.57c-37.82,-2.44 -75.57,-5.11 -113.24,-8.01l-136.66 392.12zm3069.04 1849.82l229.92 -233.74c-25.32,-25.54 -50.18,-51.78 -74.5,-78.77l-234.04 238c26.38,24.71 52.54,49.65 78.62,74.51zm-5269.11 13492.87l30.05 782.03c36.37,-10.37 72.6,-21.58 108.67,-33.55l-29.06 -755.19c-36.52,2.44 -73.05,4.88 -109.66,6.71zm437.81 -34.55l60.7 640.2c35.38,-15.87 70.61,-32.26 105.77,-48.81l-57.2 -603.36c-36.37,4.19 -72.82,8.24 -109.27,11.97zm1338.95 -15437.24c35.31,9.68 70.23,20.21 105.39,30.35l95.93 -334.25c-36.45,-5.71 -72.75,-12.04 -108.59,-19.06l-92.73 322.96zm5589.85 9791.41l322.12 90.07c7.09,-35.16 14.8,-69.86 23.34,-104.4l-315.72 -88.39c-9.76,34.4 -19.52,68.56 -29.74,102.72zm109.89 -408.13l329.97 73.74c12.82,-30.89 27.92,-64.52 44.23,-99.6l-350.56 -78.31c-7.85,34.69 -15.33,69.62 -23.64,104.17zm-242.12 809.94l396.17 133.91c2.89,-36.68 6.02,-73.21 9.6,-109.66l-370.08 -125.06c-11.59,33.78 -23.64,67.33 -35.69,100.81zm-4274.39 4567l286.81 625.55c37.98,-4.43 75.88,-9.38 113.4,-14.95l-300.61 -655.75c-33.02,15.33 -66.35,30.35 -99.6,45.15zm4603.22 -5790.34l445.96 75.03c20.36,-37.97 38.82,-71.83 53.84,-99.21l-481.8 -81.14c-5.88,35.23 -11.67,70.39 -18,105.32zm-4948.14 -8689.63c33.86,13.42 68.03,26.46 101.73,40.26l225.81 -547.46c-38.36,-2.67 -76.87,-4.96 -115.46,-7.17l-212.08 514.37zm3244.97 2329.48l381.45 -311.67c-32.18,-20.29 -64.21,-40.57 -96.16,-60.86l-355.37 290.4c23.56,27.22 46.98,54.6 70.08,82.13zm516.89 687.4l661.08 -430.41c-26.99,-25.32 -54.6,-50.18 -82.97,-74.35l-638.59 415.61c20.44,29.51 40.5,59.41 60.48,89.15zm-2935.82 -3469.17c-37.29,-6.56 -74.96,-12.43 -112.79,-17.62l-307.78 642.48c33.1,15.18 66.19,30.51 99.14,46.14l321.43 -671zm2686.91 3118.99l524.66 -383.36c-31.5,-21.58 -63.14,-42.85 -95.17,-63.98l-494.54 361.24c21.96,28.44 43.46,57.35 65.05,86.1zm872.86 1470.12l583.83 -258.14c-3.35,-37.67 -7.09,-75.12 -11.28,-112.33l-617.32 272.93c15.18,32.33 29.97,64.97 44.77,97.54zm-394.8 -757.56l733 -423.01c-2.28,-3.96 -4.27,-7.78 -6.55,-11.74 -16.1,-26.92 -33.41,-53.23 -51.25,-79.01l-731.09 421.87c18.68,30.5 37.59,61 55.89,91.89zm559.97 1150.21l449.62 -170.74c-2.21,-37.37 -4.34,-74.73 -6.4,-112.1l-482.26 183.17c13.34,32.95 26.08,66.42 39.04,99.67zm-352.01 -776.54l697.47 -354c-8.62,-35.76 -18.31,-70.92 -28.75,-105.84l-719.2 365.12c17,31.5 33.93,63.07 50.48,94.72zm-4666.43 11040.77l125.29 379.99c37.37,-3.28 74.81,-6.17 112.48,-8.84l-133.91 -406.16c-34.62,11.82 -69.09,23.8 -103.86,35.01zm-2602.11 1253.08c36.91,-0.15 73.51,-1.98 109.97,-4.8l14.94 -839.84c-36.68,0.46 -73.21,1.29 -109.96,1.37l-14.95 843.27zm-931.58 -17236.95l74.43 656.43c36.38,-3.73 72.9,-7.09 109.43,-10.29l-78.39 -690.99c-35.23,14.42 -70.39,29.44 -105.47,44.85zm-3635.95 15025.52l-446.11 611.06c24.17,28.37 48.73,56.2 73.82,83.35l463.65 -635c-30.5,-19.76 -61.08,-39.35 -91.36,-59.41zm828.02 -13526.35l-392.81 -713.02c-36.07,9.76 -71.61,20.51 -106.76,32.33l402.34 730.49c32.26,-16.93 64.75,-33.48 97.23,-49.8zm-2147.3 1569.64l-270.64 -246.01c-28.22,22.87 -57.04,45.37 -86.32,67.56l282 256.61c24.94,-26.15 49.72,-52.31 74.96,-78.16zm13868.37 3870.98l390.14 -80.61c-16.01,-33.1 -31.64,-66.27 -46.74,-99.29l-366.12 75.5c7.78,34.77 15.55,69.47 22.72,104.4zm-4015.49 -5332.03l402.19 -732.39c-33.48,-14.79 -67.64,-28.21 -102.11,-40.72l-396.24 721.41c32.26,17 64.13,34.47 96.16,51.7zm-160.14 13874.25l378.09 716.68c35.23,-10.98 70.08,-22.96 104.4,-36l-385.49 -730.86c-32.1,17.08 -64.59,33.55 -97,50.18zm540.06 -13655.23l427.89 -686.26c-27.53,-24.48 -55.74,-47.89 -84.57,-70.54l-436.58 700.21c31.27,18.69 62.3,37.6 93.26,56.59zm719.13 495.38l324.63 -411.65c-21.2,-31.65 -42.4,-63.37 -63.68,-94.87l-347.51 440.86c28.98,21.73 57.88,43.54 86.56,65.66zm-352.24 -257.3l392.73 -558.75c-23.11,-30.28 -46.59,-59.86 -70.46,-89.07l-412.64 586.96c30.12,20.21 60.47,40.27 90.37,60.86zm3368.5 7397.57l606.34 69.24c16.93,-33.85 33.48,-67.71 49.72,-101.73l-643.55 -73.51c-3.96,35.31 -8.08,70.62 -12.51,106zm40.73 -420.34l759.08 46.44c12.28,-34.92 23.64,-69.7 34.24,-104.78l-786.38 -47.96c-1.99,35.53 -4.5,70.99 -6.94,106.3zm-2719.85 -6444.87l258.06 -292.83c-21.81,-29.82 -43.32,-60.17 -64.75,-90.67l-275.75 312.96c27.76,23.18 55.06,46.9 82.44,70.54zm2653.43 4759.32l530.38 -80.45c-17.54,-33.33 -35.08,-66.73 -52.62,-99.98l-494.31 75.12c5.79,35 11.28,70.08 16.55,105.31zm-292 -1236.54l346.06 -110.73c-4.72,-35.91 -8.84,-71.98 -12.66,-108.28l-367.33 117.59c11.51,33.7 22.87,67.56 33.93,101.42zm120.64 407.15l317.32 -83.35c-7.48,-23.57 -14.57,-47.21 -21.05,-70.77 -2.9,-10.6 -5.49,-21.28 -8.24,-32.03l-316.7 83.2c9.61,34.24 19.52,68.4 28.67,102.95zm255.47 2093.23l845.86 6.71c3.13,-35.23 5.11,-70.77 5.57,-106.61l-849.98 -6.71c-0.08,35.61 -0.84,71.07 -1.45,106.61zm-33.02 -843.88l691.67 -67.8c-15.03,-34.31 -30.43,-68.63 -46.44,-102.72l-655.6 64.29c3.73,35.23 7.01,70.69 10.37,106.23zm27.99 421.56l817.42 -36.61c-7.86,-35.38 -17.01,-70.54 -26.92,-105.54l-794.77 35.54c1.83,35.53 2.89,71.07 4.27,106.61zm-6807.56 8091.91l73.06 481.5c34.54,-17.08 69.01,-34.09 103.4,-50.79l-68.02 -448.17c-35.99,6.32 -72.22,11.82 -108.44,17.46zm-9056.13 -5357.72l-392.81 118.12c4.2,35.92 7.86,71.99 11.21,108.36l415.54 -125.06c-11.75,-33.63 -22.65,-67.64 -33.94,-101.42zm-126.51 -418.67l-353.46 86.18c3.13,10.9 6.56,21.81 9.61,32.71 6.4,23.26 12.43,46.82 18.07,70.54l354.45 -86.55c-9.76,-34.17 -19.37,-68.56 -28.67,-102.88zm-232.67 -1289.31l-734.9 59.26c14.94,34.54 30.35,68.94 46.36,103.33l698.76 -56.28c-3.73,-35.38 -6.94,-70.85 -10.22,-106.31zm509.11 2118.93l-505.9 182.11c2.06,37.14 4.11,74.35 6.25,111.42l539.91 -194.31c-13.65,-33.02 -27.07,-65.97 -40.26,-99.22zm-379.01 -1254.76l-421.86 79.61c15.86,33.25 31.19,66.58 46.06,99.83l399.14 -75.19c-7.86,-34.63 -15.94,-69.32 -23.34,-104.25zm-158.46 -1300.29l-861.12 23.72c7.24,35.46 15.25,70.84 24.63,106l840.68 -23.19c-1.75,-35.38 -2.9,-71.15 -4.19,-106.53zm81.21 870.04l-566.91 76.03c17.62,33.63 35.23,67.03 52.85,100.51l530.84 -71.08c-5.8,-35.08 -11.44,-70.15 -16.78,-105.46zm1540.58 3581.12l-520.77 366.57c32.26,21.2 64.82,42.25 97.54,63.07l490.11 -344.92c-22.42,-28.14 -44.91,-56.28 -66.88,-84.72zm278.65 339.35l-376.33 296.57c32.02,20.44 63.9,41.18 95.47,62.07l351.78 -277.2c-23.94,-26.92 -47.43,-54.22 -70.92,-81.44zm-1190.09 -1833.34l-644.09 271.4c3.89,37.14 8.24,74.13 13.04,110.88l677.41 -285.59c-15.48,-32.18 -31.26,-64.28 -46.36,-96.69zm1486.74 2157.44l-280.17 246.39c28.9,22.73 57.27,45.68 84.95,69.24l271.02 -238.38c-25.47,-25.55 -50.71,-51.32 -75.8,-77.25zm-834.2 -1017.75l-671.76 420.64c28.67,24.4 58.03,48.43 87.93,71.91l645.76 -404.4c-20.82,-29.2 -41.56,-58.64 -61.93,-88.15zm-238.53 -367.95l-767.63 425.14c20.29,29.97 41.72,59.03 64.14,87.32l759.77 -420.72c-19.07,-30.43 -37.68,-61.01 -56.28,-91.74zm-217.8 -380.08l-751.99 365.28c9.99,34.85 21.05,69.17 33.1,103.18l770.14 -374.2c-17.31,-31.34 -34.4,-62.84 -51.25,-94.26zm-910.38 -3786.18l-879.19 -22.26c-4.27,35.38 -7.55,70.84 -9.3,106.53l887.04 22.5c0.23,-35.69 0.69,-71.23 1.45,-106.77zm1148.77 -3896.29l-757.41 -435.29c-21.27,28.98 -41.18,58.87 -60.32,89.38l761.83 437.72c18.38,-30.81 37.06,-61.31 55.9,-91.81zm2777.96 10804.44l-463.73 714.7c29.36,21.27 59.33,41.86 90.29,61.16l468.07 -721.49c-31.64,-18.07 -63.29,-35.84 -94.63,-54.37zm-2276.87 -11523.49l-500.64 -364.82c-32.25,20.89 -64.36,42.02 -96.23,63.29l530.99 386.87c21.73,-28.6 43.69,-57.05 65.88,-85.34zm-755.11 1161.81l-743.3 -369.4c-9.68,35.08 -18.45,70.77 -26.31,106.68l720.35 358.04c16.39,-31.95 32.48,-63.83 49.26,-95.32zm1037.65 -1502.91l-359.63 -292.99c-31.65,20.51 -63.53,41.03 -95.56,61.39l384.2 313.12c23.41,-27.46 47.28,-54.38 70.99,-81.52zm-545.71 696.47l-652.77 -423.85c-29.06,23.87 -57.35,48.35 -85.11,73.21l677.49 439.71c20.13,-29.67 39.96,-59.64 60.39,-89.07zm-1249.88 2955.34l-457.17 -85.03c-16.7,33.02 -33.71,65.96 -50.87,99.13l488.52 90.83c6.25,-35 12.81,-70.08 19.52,-104.93zm-70.69 432.39l-613.66 -81.07c-17.23,33.63 -34.24,67.26 -50.94,100.97l651.63 86.02c4.2,-35.39 8.24,-70.85 12.97,-105.92zm-45.6 435.36l-776.62 -60.86c-13.12,34.55 -25.7,69.17 -37.3,103.94l806.98 63.37c2.21,-35.53 4.27,-71.07 6.94,-106.45zm474.4 -2133.27l-467.46 -167.08c-2.29,36.98 -4.73,74.12 -7.48,111.03l438.19 156.56c12.2,-33.48 24.09,-67.11 36.75,-100.51zm188.59 -452.52l-620.67 -264.47c-3.28,37.45 -6.25,74.97 -9,112.64l585.59 249.52c14.34,-32.72 29.29,-65.13 44.08,-97.69zm-332.11 867.83l-370.39 -110.66c-5.41,35.62 -11.59,71.08 -18.3,106.16l357.35 106.61c10.22,-34.17 20.67,-68.1 31.34,-102.11zm-119.42 422.32l-361.62 -87.47c-12.12,33.63 -24.86,67.18 -38.43,100.58l374.05 90.37c8.23,-34.62 17.31,-69.09 26,-103.48zm5159.76 9747.26c37.67,3.28 75.11,7.09 112.4,11.44l133.45 -361.39c-34.92,-10.91 -69.85,-21.66 -104.55,-32.94l-141.3 382.89zm902.06 215.89c34.09,14.34 68.1,29.05 102.04,44.31l96.85 -392.05c-36,-7.09 -71.69,-15.1 -107.45,-22.65l-91.44 370.39zm432.47 202.39c34.01,16.78 68.1,33.71 102.18,50.48l99.14 -526.72c-36.3,-5.18 -72.45,-10.75 -108.59,-16.39l-92.73 492.63zm4406.92 -946.14l194.69 496.06c38.44,-2.21 76.79,-4.27 115.08,-6.56l-208.04 -529.77c-33.86,13.58 -67.64,27.23 -101.73,40.27zm-6232.71 496.29c38.81,2.14 77.7,4.12 116.6,6.25l202.77 -467.46c-34.24,-12.66 -68.48,-25.47 -102.49,-38.59l-216.88 499.8zm2270.76 663.53c34.85,15.63 69.77,30.73 104.85,45.3l89.38 -684.12c-36.53,-3.21 -73.06,-6.64 -109.36,-10.45l-84.87 649.27zm-1315.54 -562.18c20.2,4.8 40.41,9.61 60.47,14.72 15.33,4.04 30.5,8.38 45.83,12.81l100.28 -326.92c-35.46,-8.93 -70.84,-18.38 -106.15,-27.76l-100.43 327.15zm4065.21 -15631.02c35.76,7.78 71.45,15.86 107.06,24.1l76.26 -335.39c-34.54,-12.35 -69.09,-25.55 -103.63,-39.2l-79.69 350.49zm-2257.57 -974.97l45.07 792.86c36.45,-1.83 73.2,-2.82 109.81,-4.12l-46.29 -813.98c-36.38,7.39 -72.6,15.86 -108.59,25.24zm1821.29 892c36.14,5.95 72.37,11.82 108.29,18.07l73.51 -434.14c-34.24,-16.55 -68.56,-33.17 -102.87,-50.1l-78.93 466.17zm-884.53 -96.09c36.61,1.98 73.21,4.27 109.74,6.71l41.25 -744.13c-35.84,-12.43 -71.91,-23.87 -108.06,-34.85l-42.93 772.27zm443.83 36.53c36.45,3.81 72.9,7.55 109.2,12.05l65.89 -587.96c-34.93,-16.7 -69.93,-33.17 -105.01,-49.34l-70.08 625.25zm-1406.9 16507.31c35.92,9.76 71.99,18.84 108.21,26.77l59.86 -809.03c-36.68,-1.38 -73.36,-2.6 -109.89,-4.43l-58.18 786.69zm516.96 -17399.77l0.53 842.74c36.68,0.08 73.28,0.84 109.89,1.37l-0.53 -837.55c-36.46,-3.43 -73.06,-5.57 -109.89,-6.56zm-3760.25 16525.62c38.43,4.57 77.09,8.77 115.99,12.43l300.53 -599.32c-33.4,-14.49 -66.65,-29.52 -99.9,-44.46l-316.62 631.35zm1658.09 -15422.76l-94.71 -328.14c-13.65,3.89 -27.22,7.85 -40.95,11.28 -21.66,5.65 -43.39,10.98 -65.36,15.94l94.95 328.91c35.23,-9.61 70.61,-18.84 106.07,-27.99zm-2444.32 1071.74l-447.87 -635.54c-25.02,27.68 -49.49,55.82 -73.52,84.8l430.64 610.99c30.2,-20.14 60.32,-40.42 90.75,-60.25zm-761.53 12556.57l-308 337.06c21.04,30.5 42.01,61.08 62.83,91.89l329.06 -360.17c-28.14,-22.65 -56.05,-45.68 -83.89,-68.78zm346.3 271.78l-382.59 467.7c21.35,31.27 42.78,62.15 64.43,92.96l405.63 -496.07c-29.36,-21.27 -58.42,-42.93 -87.47,-64.59zm-677.33 -561.8l-260.12 255.24c23.71,27.15 46.82,55.06 69.7,83.28l270.72 -265.61c-26.77,-24.33 -53.84,-48.35 -80.3,-72.91zm374.12 -11740.82l-314.19 -355.6c-21.04,30.89 -42.17,61.55 -63.52,92.13l293.75 332.33c27.68,-23.18 55.9,-45.91 83.96,-68.86zm-336.22 290.85l-260.81 -264.54c-23.26,27.99 -46.9,55.36 -71.07,82.13l252.49 256.08c26.31,-24.63 52.7,-49.34 79.39,-73.67zm1435.19 -1049.32l-454.89 -727.43c-30.65,19.75 -60.55,40.56 -89.68,62.22l450.16 720.04c31.27,-18.61 62.84,-36.53 94.41,-54.83zm1633.69 -716.3l-127.81 -365.2c-37.21,4.11 -74.65,7.85 -112.17,11.21l135.51 387.09c34.62,-11.52 69.62,-22.12 104.47,-33.1zm-2380.95 1202.14l-389.15 -492.4c-21.58,31.11 -43.09,62.46 -64.36,93.88l366.34 463.34c28.91,-21.73 57.88,-43.46 87.17,-64.82zm1958.1 -1056.56l-196.29 -474.49c-38.67,2.14 -77.33,4.12 -115.92,6.26l210.02 507.2c34.01,-13.12 68.02,-26.16 102.19,-38.97zm-885.75 14331.26l-413.32 721.33c35.38,11.44 71.3,22.12 107.6,31.57l402.95 -703.1c-32.56,-16.4 -64.97,-33.1 -97.23,-49.8zm471.51 -14163.42l-292.45 -608.54c-38.59,3.89 -77.03,8.08 -115.15,12.81l308 640.73c33.18,-14.95 66.2,-30.43 99.6,-45zm1703.17 -535.49l-90.14 -394.03c-34.09,15.48 -68.25,30.28 -102.34,44.61l85.1 372.15c35.77,-7.7 71.46,-15.63 107.38,-22.73zm247.46 -555.62l84.8 497.06c36.07,-5.8 72.21,-11.37 108.51,-16.55l-90.59 -531.3c-34.32,16.86 -68.56,33.86 -102.72,50.79z"></path> </g> </svg> 