<?xml version="1.0" encoding="UTF-8"?> <svg xmlns="http://www.w3.org/2000/svg" xmlns:xlink="http://www.w3.org/1999/xlink" xmlns:xodm="http://www.corel.com/coreldraw/odm/2003" xmlns:inkscape="http://www.inkscape.org/namespaces/inkscape" xmlns:sodipodi="http://sodipodi.sourceforge.net/DTD/sodipodi-0.dtd" xmlns:svg="http://www.w3.org/2000/svg" xml:space="preserve" width="210mm" height="100mm" version="1.1" style="shape-rendering:geometricPrecision; text-rendering:geometricPrecision; image-rendering:optimizeQuality; fill-rule:evenodd; clip-rule:evenodd" viewBox="0 0 21000 10000" sodipodi:docname="UTE_LOGO_130x50_Negativo2.svg" inkscape:export-filename="UTE_LOGO_130x50_Negativo.svg" inkscape:export-xdpi="96" inkscape:export-ydpi="96" inkscape:version="1.2.1 (9c6d41e410, 2022-07-14)"> <defs> <style type="text/css"> .fil0 {fill:#00468C;fill-rule:nonzero} .fil1 {fill:#FF8200;fill-rule:nonzero} </style> </defs> <g id="Capa_x0020_1"> <metadata id="CorelCorpID_0Corel-Layer"></metadata> <g id="_1686578245808"> <path id="path6" class="fil0" d="M6692.3 3153.88c115.39,0 201.91,86.52 201.91,201.91l0 3028.84c0,1644.27 -1096.18,2682.72 -2711.52,2682.72 -1586.54,0 -2682.72,-1038.45 -2682.72,-2682.72l0 -3028.84c0,-115.39 86.52,-201.91 201.91,-201.91l951.93 0c115.39,0 201.92,86.52 201.92,201.91l0 3028.84c0,951.92 548.09,1413.49 1355.76,1413.49 865.4,0 1355.76,-519.23 1355.76,-1413.49l0.07 -3028.84c0,-115.39 86.46,-201.91 201.85,-201.91 0,0 923.06,0 923.06,0l0.07 0zm6057.72 3144.15c115.4,0 201.92,86.53 201.92,201.92l0 57.73c0,1557.68 -980.79,2538.47 -2480.8,2538.47 -1500.02,0 -2480.81,-951.93 -2480.81,-2538.47l0 -1355.76c0,-115.39 86.53,-201.85 201.92,-201.85l951.99 -0.07c115.39,0 201.92,86.46 201.92,201.85l0 1355.83c0,778.87 432.7,1269.23 1153.84,1269.23 721.14,0 1124.98,-490.36 1124.98,-1269.23l0 -57.66c0,-115.39 86.53,-201.92 201.92,-201.92l923.12 -0.07zm6346.11 1153.91c115.39,57.67 173.06,173.06 86.53,288.45 -634.62,980.79 -1500.02,1355.76 -2538.47,1355.76 -1701.93,0 -2942.24,-1211.57 -2942.24,-3057.7 0,-1817.26 1240.31,-2999.97 2855.71,-2999.97 1500.02,0 2855.78,1009.66 2942.31,3230.76 0,115.39 -86.53,201.91 -201.92,201.91l-4125.01 0c86.52,951.93 721.14,1355.76 1471.15,1355.76 576.95,0 1038.45,-230.78 1298.1,-634.61 57.66,-86.53 144.25,-115.39 230.78,-86.53l923.06 346.17zm-3923.09 -1990.44l2826.98 0c-144.26,-749.94 -721.21,-1211.44 -1442.36,-1211.44 -692.34,0 -1240.37,461.56 -1384.62,1211.5l0 -0.06z"></path> <path id="path16" class="fil1" d="M11855.74 4307.69l0 -951.92c0,-115.39 -86.52,-201.91 -201.91,-201.91l-2336.53 0 0 -2048.09c0,-115.39 -86.53,-201.92 -201.92,-201.92l-951.92 0c-115.39,0 -201.92,86.53 -201.92,201.92l0 2048.09c0,750 605.75,1326.95 1326.96,1326.95l2336.46 -0.07c144.26,28.87 230.78,-57.66 230.78,-173.05z"></path> </g> </g> </svg> 